<?xml version="1.0" encoding="UTF-8" standalone="no"?>
<!-- Created with Inkscape (http://www.inkscape.org/) -->

<svg
   xmlns:dc="http://purl.org/dc/elements/1.1/"
   xmlns:cc="http://creativecommons.org/ns#"
   xmlns:rdf="http://www.w3.org/1999/02/22-rdf-syntax-ns#"
   xmlns:svg="http://www.w3.org/2000/svg"
   xmlns="http://www.w3.org/2000/svg"
   xmlns:sodipodi="http://sodipodi.sourceforge.net/DTD/sodipodi-0.dtd"
   xmlns:inkscape="http://www.inkscape.org/namespaces/inkscape"
   width="450"
   height="500"
   viewBox="0 0 119.06251 132.29166"
   version="1.1"
   id="svg8"
   sodipodi:docname="logo.svg"
   inkscape:export-filename="C:\xampp\htdocs\4te\weterynarz\logo-mini.png"
   inkscape:export-xdpi="33.02774"
   inkscape:export-ydpi="33.02774"
   inkscape:version="0.92.2 (5c3e80d, 2017-08-06)">
  <defs
     id="defs2" />
  <sodipodi:namedview
     id="base"
     pagecolor="#ffffff"
     bordercolor="#666666"
     borderopacity="1.0"
     inkscape:pageopacity="0.0"
     inkscape:pageshadow="2"
     inkscape:zoom="1.4"
     inkscape:cx="166.11935"
     inkscape:cy="221.07143"
     inkscape:document-units="mm"
     inkscape:current-layer="layer2"
     showgrid="false"
     units="px"
     inkscape:window-width="1920"
     inkscape:window-height="1018"
     inkscape:window-x="-8"
     inkscape:window-y="-8"
     inkscape:window-maximized="1" />
  <metadata
     id="metadata5">
    <rdf:RDF>
      <cc:Work
         rdf:about="">
        <dc:format>image/svg+xml</dc:format>
        <dc:type
           rdf:resource="http://purl.org/dc/dcmitype/StillImage" />
        <dc:title></dc:title>
      </cc:Work>
    </rdf:RDF>
  </metadata>
  <g
     inkscape:groupmode="layer"
     id="layer2"
     inkscape:label="Layer 2">
    <rect
       style="display:inline;fill:#ffffff;fill-opacity:1;stroke-width:0.22997676"
       id="rect3908"
       width="115.28274"
       height="77.674103"
       x="2.645833"
       y="18.14286"
       inkscape:export-xdpi="99.147537"
       inkscape:export-ydpi="99.147537" />
  </g>
  <g
     inkscape:label="Layer 1"
     inkscape:groupmode="layer"
     id="layer1"
     transform="translate(0,-164.70836)"
     style="display:inline">
    <path
       id="path3705"
       style="fill:#786721;stroke-width:0.21512935"
       d="m 59.503555,186.60018 c -0.320423,-0.005 -0.62106,0.12068 -0.915449,0.27132 -0.254173,0.13196 -0.502541,0.28534 -0.747306,0.45013 -0.0041,0.003 -0.03615,0.0248 -0.05275,0.0366 -0.108598,0.074 -0.216643,0.14988 -0.323833,0.22796 -0.169908,0.11767 -0.363794,0.24864 -0.52824,0.3494 -0.437945,0.28867 -0.868018,0.59713 -1.291664,0.921 -0.466818,0.331 -1.137498,0.84042 -1.548094,1.23569 -0.09484,0.0913 -0.152361,0.1428 -0.223826,0.20867 -0.278328,0.23909 -0.548986,0.49404 -0.809212,0.7793 -0.234399,0.3485 -0.534938,0.57168 -0.752068,0.94459 -0.196205,0.3107 -0.424242,0.58607 -0.614693,0.90219 -0.02364,0.0579 -0.04316,0.11918 -0.0707,0.17398 -0.123878,0.24655 -0.05358,0.0221 -0.158252,0.29737 -0.06765,0.17792 -0.09399,0.36505 -0.163749,0.54217 -0.118858,0.37543 -0.162792,0.77385 -0.258993,1.15907 -0.09788,0.4334 -0.115804,0.88661 -0.129684,1.33545 -0.0107,0.49514 -0.009,0.99053 -0.0085,1.48582 -0.0282,0.48104 0.02173,0.94146 0.09415,1.41015 0.03207,0.43007 0.106724,0.84261 0.185363,1.26075 0.0408,0.27098 0.02271,0.13393 0.05385,0.41158 l 1.811845,-1.26123 c -0.03589,-0.2934 -0.01542,-0.14837 -0.06081,-0.43423 -0.0792,-0.41373 -0.142226,-0.82561 -0.181698,-1.24967 -0.06945,-0.45127 -0.102948,-0.89702 -0.08059,-1.35907 -7.1e-5,-0.4916 -0.0017,-0.98349 0.01463,-1.47473 0.0197,-0.43162 0.05007,-0.86421 0.158619,-1.2757 0.08943,-0.37811 0.128661,-0.77677 0.270348,-1.13159 0.103042,-0.34377 0.231563,-0.66139 0.416879,-0.94314 0.209165,-0.29221 0.403562,-0.60147 0.608833,-0.89834 0.240966,-0.32071 0.523165,-0.57999 0.766354,-0.89834 0.216233,-0.21641 0.462968,-0.44343 0.644366,-0.61303 0.06189,-0.0478 0.124302,-0.0945 0.186094,-0.14265 l 3.75e-4,-5e-4 c 0.590844,-0.33837 1.300639,-0.56393 1.760561,-1.06411 0.09423,-0.0367 0.190003,-0.0677 0.29123,-0.0795 0.37546,0.006 0.752023,0.015 1.12462,0.082 0.356121,0.0739 0.701532,0.21041 1.061245,0.25062 0.336644,0.0853 0.656276,0.24931 0.998239,0.29976 0.314978,0.10458 0.625008,0.23783 0.931199,0.37785 0.297013,0.17026 0.618283,0.27294 0.912883,0.45398 0.27455,0.14792 0.536962,0.32501 0.804087,0.49013 0.251725,0.17082 0.500215,0.3481 0.758293,0.50025 0.26168,0.18197 0.518454,0.37139 0.779176,0.55471 0.263523,0.21414 0.523489,0.43227 0.796758,0.62556 0.266059,0.13512 0.512749,0.331 0.76672,0.50025 0.29408,0.14431 0.569126,0.347 0.860133,0.50266 0.291164,0.12129 0.573284,0.28849 0.835954,0.49302 0.265953,0.13513 0.51265,0.33017 0.766354,0.49977 0.293954,0.14491 0.568867,0.34894 0.859767,0.50509 0.297966,0.12414 0.582787,0.2984 0.86233,0.48096 0.303081,0.11827 0.593916,0.26955 0.91142,0.31664 0.341961,0.0746 0.692807,0.005 1.033038,-0.0665 0.325469,-0.0956 0.63936,-0.21031 0.976624,-0.21591 0.337843,-0.0721 0.663468,-0.22188 1.010327,-0.17011 0.350566,0.006 0.702781,0.012 1.050257,0.0794 0.314943,0.0749 0.61488,0.22368 0.935594,0.25398 0.280389,0.0826 0.535539,0.24347 0.802253,0.37735 0.218956,0.18256 0.416044,0.37795 0.547658,0.67906 0.132595,0.38149 0.17269,0.75847 0.122351,1.17834 -0.03442,0.40341 -0.09381,0.79541 -0.250933,1.15136 -0.116717,0.36268 -0.224559,0.73661 -0.385741,1.06941 -0.182748,0.31298 -0.359623,0.6309 -0.600775,0.87281 -0.114089,0.11947 -0.226709,0.23772 -0.34801,0.34457 -0.01133,0.0105 -0.01542,0.0135 -0.03407,0.0293 -0.293434,0.22147 -0.586013,0.44487 -0.879547,0.66603 -0.04014,0.0302 -0.155618,0.13122 -0.115396,0.10127 0.114011,-0.0852 0.227279,-0.1721 0.341048,-0.25784 -0.0345,0.0286 -0.02955,0.0268 0.01832,-0.008 -0.185077,0.14446 -0.368975,0.29048 -0.550588,0.44243 -0.158052,0.0969 -0.314709,0.19823 -0.483183,0.27276 -0.321629,0.0977 -0.632608,0.21937 -0.962337,0.26749 -0.983245,0.3881 -1.871871,1.14674 -2.723999,1.87522 -0.253842,0.26545 -0.447495,0.58044 -0.587587,0.96773 -0.153509,0.35327 -0.326063,0.69211 -0.47256,1.05112 -0.130172,0.33358 -0.274,0.65811 -0.430433,0.97158 -0.17332,0.38988 -0.309254,0.80693 -0.505896,1.17883 -0.191107,0.40018 -0.360447,0.81775 -0.562309,1.20918 -0.179362,0.37004 -0.340811,0.75713 -0.467798,1.1634 -0.137064,0.46649 -0.279597,0.9301 -0.385741,1.41113 v 4.8e-4 l 1.853974,-1.18268 c 0.106285,-0.46752 0.265064,-0.90628 0.387206,-1.36581 0.142163,-0.38957 0.318512,-0.7486 0.488678,-1.11569 0.189524,-0.40103 0.374816,-0.80447 0.55938,-1.20918 0.202679,-0.36879 0.298187,-0.8126 0.51359,-1.16966 0.166246,-0.31136 0.26635,-0.6763 0.427868,-0.98895 0.135003,-0.3721 0.334225,-0.68949 0.463768,-1.06412 0.0215,-0.0569 0.04546,-0.10969 0.07033,-0.16048 0.233745,-0.0701 0.47072,-0.12023 0.703713,-0.20049 0.327688,-0.0936 0.615984,-0.321 0.924972,-0.47954 0.813508,-0.40712 1.602796,-0.97357 2.288069,-1.66846 0.133193,-0.17209 0.0629,-0.0942 0.211004,-0.23423 0.0412,-0.0259 0.08485,-0.0459 0.123452,-0.0781 0.04671,-0.039 0.09028,-0.0828 0.133713,-0.1273 0.57853,-0.39367 1.492918,-1.09644 1.901597,-1.66704 0.236228,-0.24904 0.414771,-0.59301 0.582092,-0.92243 0.142556,-0.35811 0.219991,-0.76131 0.37475,-1.1099 0.156074,-0.3817 0.188436,-0.81356 0.212837,-1.23811 0.04908,-0.46737 -0.01945,-0.88582 -0.167046,-1.30701 -0.142541,-0.3488 -0.363717,-0.58393 -0.604804,-0.80725 -0.268932,-0.18267 -0.552844,-0.33925 -0.844015,-0.45062 -0.319198,-0.0597 -0.628477,-0.17527 -0.942921,-0.26554 -0.354256,-0.0909 -0.715819,-0.10398 -1.075533,-0.11466 -0.350695,-0.045 -0.688733,0.0378 -1.030474,0.12429 -0.330062,0.06 -0.657297,0.10127 -0.981753,0.20386 -0.325332,0.0978 -0.659625,0.15507 -0.993475,0.1398 -0.30575,-0.0384 -0.596302,-0.15048 -0.886509,-0.27471 -0.286548,-0.16119 -0.570222,-0.3319 -0.863428,-0.47182 -0.288782,-0.14836 -0.565105,-0.33235 -0.848777,-0.49542 -0.256051,-0.16185 -0.50523,-0.34212 -0.763425,-0.49785 -0.273015,-0.19635 -0.557364,-0.36364 -0.849508,-0.5041 -0.288904,-0.14837 -0.565499,-0.33192 -0.84951,-0.49448 -0.256262,-0.16135 -0.505924,-0.34119 -0.764156,-0.49688 -0.269012,-0.17589 -0.527962,-0.37431 -0.780639,-0.58749 -0.25744,-0.20008 -0.522645,-0.38055 -0.783939,-0.57158 -0.253765,-0.16611 -0.509483,-0.32745 -0.759392,-0.50362 -0.270376,-0.17675 -0.541267,-0.34781 -0.818739,-0.50506 -0.301812,-0.16322 -0.605341,-0.315 -0.91215,-0.46074 -0.308142,-0.16403 -0.6298,-0.28134 -0.949516,-0.4 -0.339472,-0.0743 -0.667112,-0.21087 -1.001534,-0.31375 -0.359979,-0.0618 -0.713236,-0.16993 -1.070039,-0.25592 -0.377486,-0.0852 -0.760864,-0.10308 -1.142936,-0.11467 z m -4.318614,3.13259 c -0.555543,0.41979 -0.273892,0.20439 -0.01385,0.008 0.0061,-0.003 0.0071,-0.003 0.01385,-0.008 z m 23.198308,9.73083 c 0.213287,-0.16082 -0.726081,0.54764 -0.897131,0.67664 -0.02436,0.0176 -0.04856,0.0357 -0.07289,0.0534 0.383928,-0.28913 0.702668,-0.52856 0.970029,-0.73014 z m -0.297089,0.70556 c -0.05725,0.0486 -0.420864,0.32545 -0.796026,0.60965 0.0061,-0.006 0.01227,-0.0135 0.01832,-0.0197 0.01306,-0.0136 0.01843,-0.0175 0.04176,-0.0376 0.198062,-0.15073 0.395752,-0.30229 0.593814,-0.45302 0.02541,-0.0185 0.05033,-0.0382 0.07583,-0.0564 0.06921,-0.0495 0.08704,-0.0605 0.06631,-0.0429 z m -1.57044,1.19039 c 0.0047,-0.005 -0.176541,0.13302 -0.132611,0.0993 0.02631,-0.0202 0.0528,-0.04 0.07912,-0.0602 0.01778,-0.0136 0.03574,-0.0257 0.05349,-0.039 z m -0.102932,0.0752 c -0.209031,0.16167 -0.418639,0.3222 -0.627883,0.48339 0.193741,-0.14988 0.387619,-0.29974 0.58136,-0.44965 0.01542,-0.012 0.03105,-0.0224 0.04652,-0.0337 z m -2.885184,1.44775 c -0.01448,0.012 -0.120258,0.0897 -0.282437,0.21109 0.01243,-0.012 0.02398,-0.0241 0.03664,-0.0361 0.187648,-0.13452 0.260014,-0.1862 0.245804,-0.17494 z"
       inkscape:connector-curvature="0"
       inkscape:export-xdpi="99.147537"
       inkscape:export-ydpi="99.147537" />
    <path
       id="path3707"
       style="fill:#786721;stroke-width:0.21512935"
       d="m 61.317599,203.57454 c 0.0011,0.0283 1.07e-4,0.0573 7.61e-4,0.0858 0.01039,-0.0256 0.02068,-0.0512 0.03114,-0.0766 -0.0118,-0.005 -0.01954,-0.005 -0.03187,-0.009 z"
       inkscape:connector-curvature="0"
       inkscape:export-xdpi="99.147537"
       inkscape:export-ydpi="99.147537" />
    <path
       style="fill:#786721;stroke-width:0.21512936"
       id="path3709"
       d="m 65.276509,195.92316 c 0.272057,0.29138 0.574532,0.52373 0.860904,0.78731 0.263437,0.19011 0.545933,0.3527 0.832804,0.47527 0.289365,0.12218 0.565168,0.26254 0.868523,0.32332 0.343231,0.0307 0.698789,0.10729 1.037966,0.0105 0.680999,-0.55547 0.0046,-6.4e-4 -1.563594,1.15705 -0.0325,0.0239 0.08019,-0.0533 0.0803,-0.10232 9.1e-5,-0.0427 -0.05398,-0.0487 -0.08414,-0.0644 -0.280425,-0.074 -0.543509,-0.21347 -0.8256,-0.28357 -0.314062,-0.0424 -0.607023,-0.21187 -0.852827,-0.46851 -0.212047,-0.25069 -0.403222,-0.44261 -0.683724,-0.53306 -0.108723,-0.0224 -0.178486,-0.0569 -0.286023,-0.006 -0.03873,0.0184 -0.139944,0.11391 -0.103955,0.0877 3.801305,-2.77705 1.826376,-1.75302 1.548155,-1.02264 0,0 -1.857408,1.17271 -1.857408,1.17271 v 0 c 0.09601,-1.28269 1.490596,-2.06232 2.394688,-1.7544 0.28268,0.13181 0.498698,0.35549 0.725097,0.60796 0.241509,0.21405 0.511111,0.32861 0.799991,0.37643 0.297846,0.0925 0.598979,0.20471 0.879529,0.36255 0.863926,0.96309 -1.16585,1.94206 -1.813464,2.08283 -0.358789,0.0214 -0.720114,-0.005 -1.075136,-0.0772 -0.30613,-0.0834 -0.591925,-0.23567 -0.889501,-0.35793 -0.295186,-0.14973 -0.595109,-0.30466 -0.859087,-0.53613 -0.284772,-0.2511 -0.562252,-0.51616 -0.857057,-0.74636 0,0 1.723562,-1.49194 1.723562,-1.49194 z"
       inkscape:connector-curvature="0"
       inkscape:export-xdpi="99.147537"
       inkscape:export-ydpi="99.147537" />
    <path
       style="fill:#786721;stroke-width:0.21512936"
       id="path3711"
       d="m 71.909343,199.02806 c 0.243853,0.35736 0.463558,0.75045 0.762285,1.03225 0.238076,0.30761 0.544967,0.46809 0.828247,0.68102 0.283887,0.21684 0.605811,0.26423 0.926547,0.29583 0.243687,0.0184 0.487836,0.0191 0.731826,0.0205 0,0 -1.655742,1.57983 -1.655742,1.57983 v 0 c -0.248207,-0.005 -0.496749,-0.008 -0.744116,-0.0379 -0.34264,-0.0524 -0.677455,-0.14386 -0.975929,-0.38477 -0.297021,-0.20723 -0.594483,-0.41215 -0.842927,-0.71731 -0.298394,-0.32109 -0.532722,-0.72537 -0.802338,-1.08597 0,0 1.772147,-1.38358 1.772147,-1.38358 z"
       inkscape:connector-curvature="0"
       inkscape:export-xdpi="99.147537"
       inkscape:export-ydpi="99.147537" />
    <path
       style="fill:#786721;stroke-width:0.21512936"
       id="path3713"
       d="m 77.580955,193.56466 c 0.203219,0.39913 0.421509,0.78941 0.670677,1.1414 0.175087,0.38711 0.458305,0.46044 0.744576,0.62608 0.291644,0.16773 0.609074,0.19948 0.922658,0.22378 0.04977,-0.012 0.09955,-0.0253 0.149323,-0.0381 0,0 -1.648713,1.60592 -1.648713,1.60592 v 0 c -0.05539,-2.1e-4 -0.110785,-5e-4 -0.166187,-6.5e-4 -0.331119,-0.039 -0.659938,-0.10413 -0.964482,-0.29056 -0.315725,-0.16213 -0.594527,-0.3441 -0.787734,-0.73161 -0.253222,-0.38095 -0.481042,-0.79016 -0.713035,-1.19329 0,0 1.792919,-1.34305 1.792919,-1.34305 z"
       inkscape:connector-curvature="0"
       inkscape:export-xdpi="99.147537"
       inkscape:export-ydpi="99.147537" />
    <path
       id="path3715"
       style="fill:#786721;stroke-width:0.21512935"
       d="m 52.913355,196.91511 -1.853977,1.18267 c -0.06823,0.55537 -0.115348,1.10449 -0.07107,1.66511 0.04156,0.48501 0.07939,0.96455 0.160084,1.441 0.04971,0.46703 0.133933,0.91824 0.223093,1.374 0.08912,0.4349 0.06579,0.88947 0.129307,1.32823 0.08646,0.41942 0.125813,0.84914 0.148001,1.28147 0.09025,0.41306 0.117158,0.84603 0.206241,1.25785 0.07878,0.38873 0.197571,0.76058 0.324199,1.12629 0.152408,0.37661 0.267637,0.77315 0.400028,1.16148 0.101752,0.36189 0.24806,0.69578 0.329328,1.0675 0.125199,0.35853 0.198912,0.73818 0.30698,1.10509 0.09459,0.36101 0.223345,0.7061 0.355701,1.0458 0.104852,0.35012 0.260807,0.6697 0.445453,0.95568 0.110989,0.1803 0.236838,0.33618 0.334456,0.53014 l 1.774849,-1.36484 c -0.101909,-0.20833 -0.228324,-0.37663 -0.349476,-0.56436 -0.181819,-0.26014 -0.319228,-0.56949 -0.420176,-0.89641 -0.129149,-0.33145 -0.25466,-0.66814 -0.346545,-1.02075 -0.105875,-0.3599 -0.177605,-0.73346 -0.300019,-1.08533 -0.08885,-0.38089 -0.233923,-0.72797 -0.342882,-1.09881 -0.133005,-0.3872 -0.252621,-0.78092 -0.400394,-1.15907 -0.115978,-0.35783 -0.235013,-0.71445 -0.308446,-1.09207 -0.07953,-0.39704 -0.114546,-0.8101 -0.191588,-1.2087 -0.02576,-0.44127 -0.0711,-0.87821 -0.155319,-1.30751 -0.05549,-0.44679 -0.03999,-0.90827 -0.137002,-1.34749 -0.09115,-0.45049 -0.169298,-0.89924 -0.223825,-1.36052 -0.07505,-0.46667 -0.102979,-0.94027 -0.149103,-1.41304 -0.03649,-0.54068 0.01848,-1.07555 0.112091,-1.60341 z"
       inkscape:connector-curvature="0"
       inkscape:export-xdpi="99.147537"
       inkscape:export-ydpi="99.147537" />
    <path
       id="path3717"
       style="fill:#786721;stroke-width:0.21512935"
       d="m 38.90286,209.06431 -1.912954,0.99135 c -0.139346,0.16439 -0.07415,0.0776 -0.196349,0.26072 -0.18199,0.26752 -0.344956,0.55551 -0.490512,0.85931 -0.161124,0.28987 -0.349733,0.55566 -0.463768,0.88724 -0.122162,0.33985 -0.250373,0.67552 -0.363762,1.02075 -0.111997,0.38174 -0.208217,0.76891 -0.290494,1.1634 -0.109447,0.43553 -0.174923,0.88724 -0.293428,1.31954 -0.08487,0.37184 -0.202795,0.72949 -0.296724,1.09739 -0.120494,0.38379 -0.198294,0.79013 -0.231517,1.20339 -0.05572,0.41873 -0.160809,0.82319 -0.188293,1.24822 -0.05182,0.44207 -0.147309,0.87935 -0.128944,1.33064 3e-6,0.49851 4.4e-5,0.99694 0,1.49545 -7.6e-5,0.49846 1.02e-4,0.997 -3.75e-4,1.49547 -5.07e-4,0.49875 -0.0016,0.9972 -7.03e-4,1.49593 0.002,0.50278 0.0039,1.00627 0.03736,1.5075 0.04029,0.50664 0.113303,1.00462 0.197084,1.50173 0.05341,0.50531 0.145515,0.997 0.300753,1.46655 0.104066,0.39773 0.231608,0.786 0.387207,1.15375 0.128677,0.40183 0.285162,0.79077 0.450214,1.16821 0.167019,0.38623 0.339173,0.76809 0.500401,1.1581 0.152062,0.358 0.307927,0.71437 0.446917,1.081 0.159721,0.35571 0.326391,0.70255 0.50553,1.04147 0.16573,0.29685 0.340238,0.58365 0.49344,0.89207 0.186451,0.2717 0.394405,0.51865 0.600041,0.76436 0.237808,0.30907 0.50775,0.57382 0.772581,0.84097 0.213734,0.25242 0.429294,0.50008 0.622388,0.77978 0.22749,0.25824 0.433672,0.5477 0.668912,0.7952 0.260468,0.25212 0.508105,0.52523 0.748403,0.81014 0.191585,0.27518 0.406393,0.52522 0.626783,0.75906 0.233429,0.2683 0.500241,0.47573 0.750235,0.71567 0.251044,0.26072 0.547492,0.41701 0.80665,0.66266 0.308905,0.20515 0.604088,0.44415 0.931567,0.59762 0.318248,0.2089 0.649876,0.31949 1.007761,0.31855 0.990917,-0.72059 1.925176,-0.87361 2.289903,-2.17642 0.100855,-0.37154 0.189675,-0.74683 0.284635,-1.121 0.08373,-0.4076 0.167552,-0.81923 0.20038,-1.24003 0.05124,-0.43847 0.146381,-0.87049 0.138104,-1.31762 0.0129,-0.45183 0.03213,-0.90516 0.106976,-1.34797 0.07173,-0.4464 0.09873,-0.8924 0.113932,-1.348 0.03948,-0.43679 0.121643,-0.86182 0.164844,-1.29737 0.02021,-0.49721 0.05673,-0.99256 0.128945,-1.48197 0.05846,-0.50352 0.0522,-1.00818 0.04652,-1.51667 -0.0027,-0.48812 -0.0052,-0.97718 -0.03956,-1.46364 -0.03659,-0.43132 -0.10822,-0.85301 -0.154596,-1.28195 0.002,-0.46833 -0.0015,-0.94089 0.06447,-1.40293 0.0764,-0.37521 0.216872,-0.62847 0.457541,-0.85641 0.203667,-0.22993 0.360653,-0.52144 0.598209,-0.69929 0.229768,-0.20993 0.414791,-0.48233 0.617992,-0.73351 0.227569,-0.2899 0.463764,-0.5675 0.697851,-0.84821 0.240617,-0.2429 0.494476,-0.46941 0.702246,-0.76243 0.193642,-0.24244 0.381082,-0.49354 0.585022,-0.72146 0.219798,-0.23112 0.447715,-0.44795 0.663417,-0.68533 0.21058,-0.28915 0.430527,-0.56464 0.654623,-0.83519 0.234191,-0.2832 0.467368,-0.56776 0.71287,-0.83424 0.26833,-0.30292 0.547177,-0.6073 0.743274,-0.99906 0.164404,-0.32402 0.329847,-0.64537 0.500401,-0.96387 0.163624,-0.35228 0.325628,-0.70583 0.493075,-1.05497 0.179119,-0.31342 0.354867,-0.62931 0.543261,-0.93303 0.162904,-0.30843 0.277799,-0.64688 0.395997,-0.98749 0.128111,-0.39888 0.247524,-0.8033 0.387207,-1.19521 0.187412,-0.47033 0.350338,-0.95922 0.463403,-1.46992 l -1.85361,1.1822 c -0.115474,0.49023 -0.291573,0.94052 -0.474025,1.39088 -0.140857,0.39443 -0.226441,0.82975 -0.393799,1.20628 -0.08723,0.35923 -0.25579,0.64684 -0.408821,0.95665 -0.204962,0.27844 -0.378171,0.60273 -0.541795,0.92485 -0.161845,0.35002 -0.301062,0.73188 -0.490509,1.05882 -0.174607,0.31944 -0.349029,0.63506 -0.500768,0.97592 -0.224981,0.34666 -0.505365,0.61419 -0.755729,0.92388 -0.245519,0.27256 -0.50638,0.53652 -0.717632,0.8564 -0.249352,0.23333 -0.427121,0.56313 -0.656091,0.82461 -0.234562,0.20093 -0.475594,0.41296 -0.667079,0.68434 -0.198836,0.23494 -0.408896,0.46696 -0.579527,0.73978 -0.225966,0.26409 -0.491086,0.45585 -0.707741,0.73303 -0.237037,0.27612 -0.45124,0.58954 -0.697485,0.8516 -0.166707,0.30695 -0.413109,0.48192 -0.625685,0.71663 -0.192188,0.0826 -0.245075,0.3459 -0.386473,0.50218 -0.297574,0.3289 0.07857,-0.15577 -0.204776,0.22218 -0.281711,0.2151 -0.351694,0.60979 -0.401494,1.0034 -0.04381,0.48083 -0.04014,0.9662 -0.04029,1.44966 0.05818,0.43677 0.128378,0.86809 0.162281,1.30991 0.02968,0.4782 0.03069,0.95867 0.03261,1.43811 0.01306,0.49816 0.0055,0.9846 -0.06155,1.47473 -0.07423,0.49815 -0.102302,1.00418 -0.118684,1.51039 -0.08795,0.42213 -0.143013,0.85043 -0.172905,1.28583 0.0118,0.45513 -0.0558,0.88378 -0.125655,1.32484 -0.06605,0.45728 -0.07783,0.92348 -0.08682,1.3875 -0.0098,0.43688 -0.109715,0.85911 -0.150567,1.29401 -0.05503,0.3941 -0.102444,0.82423 -0.220894,1.19665 -0.02154,0.10489 -0.04612,0.20789 -0.07217,0.31037 -0.29955,-0.15917 -0.584459,-0.35658 -0.870024,-0.55471 -0.254454,-0.22423 -0.532539,-0.39635 -0.782469,-0.6294 -0.246512,-0.23816 -0.508248,-0.44667 -0.745474,-0.70123 -0.21525,-0.22714 -0.420169,-0.47355 -0.611763,-0.73495 -0.242907,-0.30351 -0.50896,-0.57276 -0.772949,-0.8434 -0.228687,-0.24526 -0.437752,-0.51831 -0.654258,-0.78122 -0.197568,-0.27692 -0.409713,-0.53175 -0.629348,-0.77785 -0.261451,-0.26564 -0.523093,-0.53311 -0.763057,-0.83231 -0.202077,-0.24397 -0.402822,-0.49175 -0.591614,-0.75376 -0.153368,-0.29699 -0.319699,-0.58112 -0.485749,-0.86604 -0.178867,-0.32738 -0.338268,-0.66887 -0.49344,-1.0164 -0.135664,-0.36737 -0.294699,-0.72013 -0.450946,-1.07328 -0.163318,-0.38826 -0.330298,-0.77319 -0.495274,-1.16051 -0.165269,-0.3643 -0.317469,-0.74523 -0.439225,-1.13883 -0.14849,-0.36574 -0.283026,-0.74289 -0.383176,-1.13641 -0.158757,-0.45007 -0.239836,-0.9277 -0.284269,-1.41737 -0.09459,-0.49166 -0.159609,-0.98924 -0.194152,-1.49402 -0.0273,-0.49427 -0.02743,-0.99004 -0.02858,-1.48533 -1.87e-4,-0.49833 7.62e-4,-0.99667 0.0011,-1.49498 3.75e-4,-0.49856 3.75e-4,-0.99738 3.75e-4,-1.49594 3e-5,-0.49852 3e-6,-0.99694 0,-1.49546 0.0024,-0.43882 0.104364,-0.86331 0.145798,-1.29929 0.04378,-0.42013 0.146696,-0.82181 0.190124,-1.24535 0.02151,-0.40317 0.135805,-0.77928 0.256794,-1.14509 0.08015,-0.38675 0.214936,-0.73902 0.282438,-1.13158 0.1156,-0.43015 0.183563,-0.87137 0.298187,-1.30124 0.08351,-0.38347 0.153195,-0.78934 0.303684,-1.13882 0.125325,-0.33124 0.216446,-0.69338 0.370356,-1.00388 0.120935,-0.32865 0.341131,-0.55277 0.467798,-0.87712 0.143029,-0.30208 0.339672,-0.54407 0.502233,-0.82509 0.133099,-0.14912 0.06114,-0.0846 0.217231,-0.19277 z m 6.235229,33.27499 c -0.03429,0.0495 -0.07295,0.0951 -0.123814,0.12971 -0.04032,0.0274 -0.166028,0.0953 -0.127119,0.0645 0.08318,-0.0656 0.16741,-0.12926 0.250932,-0.19422 z"
       inkscape:connector-curvature="0"
       inkscape:export-xdpi="99.147537"
       inkscape:export-ydpi="99.147537" />
    <path
       style="fill:#786721;stroke-width:0.21512936"
       id="path3719"
       d="m 57.1296,225.58485 c 0.320155,0.20868 0.636713,0.42638 0.954705,0.64212 0.288866,0.17891 0.571687,0.37155 0.868101,0.53164 0.343248,0.21934 0.700229,0.41116 1.065861,0.55663 0.343476,0.10774 0.672005,0.28621 1.003516,0.44487 0.360719,0.13679 0.7281,0.24987 1.082328,0.41476 0.355293,0.11963 0.699434,0.27853 1.051446,0.41212 0.32419,0.14521 0.634199,0.33645 0.957765,0.48269 0.291287,0.18193 0.561083,0.40832 0.83482,0.62977 0.239456,0.22268 0.439023,0.50403 0.659912,0.75454 0.234902,0.30071 0.337938,0.71291 0.479218,1.0895 0.1218,0.38083 0.274331,0.74076 0.368032,1.13626 0.07802,0.40569 0.183804,0.79586 0.238277,1.20971 0.05133,0.47835 0.05435,0.96245 0.05816,1.44459 0.01306,0.44735 -0.06035,0.89014 -0.142446,1.3218 -0.08095,0.37406 -0.204735,0.72564 -0.326062,1.07891 -0.142997,0.36639 -0.302289,0.72016 -0.48132,1.05789 -0.211426,0.35448 -0.417183,0.71468 -0.628121,1.06968 -0.185074,0.30776 -0.383625,0.60146 -0.593114,0.88074 -0.205833,0.30029 -0.43501,0.56714 -0.674048,0.82038 -0.266754,0.26661 -0.515566,0.5615 -0.784641,0.82395 -0.248082,0.22635 -0.48638,0.47067 -0.70917,0.7387 -0.260242,0.29186 -0.532955,0.56326 -0.798455,0.84663 -0.241391,0.28357 -0.510336,0.52166 -0.768169,0.77791 -0.231543,0.25839 -0.459126,0.51911 -0.70565,0.75292 -1.112373,0.95898 -3.84089,2.92384 -0.385501,0.33791 0.04293,-0.032 -0.08203,0.0725 -0.124948,0.10473 -1.914266,1.43364 -1.196568,1.16732 -2.04931,1.46214 -0.721808,0.49464 0.131793,-0.0877 1.548203,-1.16774 0.03772,-0.0287 -0.07472,0.0855 -0.07313,-0.0703 5.63e-4,-0.0539 0.07997,-0.0325 0.120871,-0.0292 0.268337,-0.0152 0.574421,-0.0767 0.825155,-0.21536 0.296237,-0.0987 0.571805,-0.26287 0.864059,-0.37611 0.338054,-0.10654 0.687297,-0.11647 1.033093,-0.127 0.362197,-0.0208 0.717314,-0.0294 1.050222,0.17832 0.257436,0.16187 0.480432,0.41814 0.673927,0.69198 0.191351,0.2477 0.389236,0.4896 0.567859,0.75391 0.171189,0.29926 0.308543,0.62355 0.446609,0.95031 0.149118,0.36999 0.17162,0.74294 0.06427,1.13293 -0.117787,0.33313 -0.310021,0.60834 -0.513419,0.85509 -0.704236,0.74387 0.01761,-0.005 -2.027386,1.57238 -0.53691,0.41401 2.158012,-1.6325 1.619669,-1.22173 -0.810845,0.61869 -1.377301,1.27997 -2.204562,1.55769 -0.281221,0.21414 -0.597528,0.27571 -0.915418,0.31547 -0.359011,0.13904 -0.728762,0.20589 -1.100668,0.2459 -0.337661,0.0393 -0.661125,0.17747 -0.99977,0.23122 -0.362876,0.0462 -0.727865,0.0482 -1.092098,0.0512 -0.378723,0.002 -0.757447,-6e-5 -1.136171,-6.4e-4 -0.379152,-6.3e-4 -0.758303,-6.3e-4 -1.137456,-6.3e-4 -0.381598,-0.0152 -0.766292,0.0396 -1.143813,-0.043 -0.368718,-0.0856 -0.734519,-0.13964 -1.094088,-0.27733 -0.293551,-0.0995 -0.56593,-0.28507 -0.835507,-0.46379 -0.259055,-0.14882 -0.506834,-0.32871 -0.757949,-0.50063 -0.221777,-0.20897 -0.451998,-0.41885 -0.704196,-0.55953 -0.243116,-0.18027 -0.487149,-0.37113 -0.748319,-0.50377 -0.244216,-0.20716 -0.523091,-0.31064 -0.78962,-0.45545 -0.297662,-0.0874 -0.584703,-0.21254 -0.879566,-0.31544 -0.295983,-0.0799 -0.574161,-0.24511 -0.84677,-0.41227 -0.289979,-0.18302 -0.540542,-0.43948 -0.798834,-0.68647 -0.246431,-0.18303 -0.483622,-0.39815 -0.688433,-0.65619 -0.227957,-0.21218 -0.350943,-0.55092 -0.528761,-0.82462 -0.171074,-0.3139 -0.326001,-0.63956 -0.422615,-1.00579 -0.151228,-0.35325 -0.193107,-0.75267 -0.278553,-1.1345 -0.116513,-0.41345 -0.161987,-0.84776 -0.189536,-1.2845 -0.0033,-0.0804 -0.0066,-0.16054 -0.0099,-0.24082 0,0 1.819038,-1.23456 1.819038,-1.23456 v 0 c 0.0028,0.0779 0.0055,0.15588 0.0082,0.23381 0.02282,0.41781 0.05969,0.83471 0.173022,1.22963 0.08938,0.3774 0.121108,0.77781 0.275972,1.12697 0.08344,0.33692 0.230968,0.63197 0.387698,0.91775 0.166481,0.27108 0.295926,0.58536 0.514325,0.79368 0.208182,0.24084 0.439513,0.44178 0.674655,0.63403 0.244484,0.24425 0.495225,0.47389 0.777097,0.6395 0.264684,0.16205 0.541533,0.29167 0.82632,0.37771 0.298288,0.11632 0.601708,0.20543 0.894944,0.34111 0.26584,0.14701 0.542252,0.25877 0.790465,0.4569 0.256596,0.15535 0.505155,0.33427 0.753033,0.5121 0.24679,0.1665 0.479539,0.3676 0.710012,0.56997 0.247788,0.1761 0.501038,0.33912 0.755747,0.49684 0.258264,0.17399 0.527104,0.32937 0.809033,0.4231 0.351075,0.12415 0.713708,0.16706 1.07156,0.24741 0.375916,0.0345 0.753263,0.009 1.129869,0.0169 0.379186,1.6e-4 0.758372,4.9e-4 1.137558,6.4e-4 0.378387,6.4e-4 0.756784,0.002 1.13516,-0.001 0.360286,-0.006 0.721884,-0.0151 1.079109,-0.0831 0.334127,-0.0739 0.661115,-0.2039 1.001855,-0.21784 0.371357,-0.0555 0.734208,-0.16038 1.100432,-0.25529 0.312161,-0.0653 0.603379,-0.1945 0.894134,-0.35608 0.09763,-0.0498 0.377521,-0.23718 0.287209,-0.16745 -0.537468,0.41498 -2.160716,1.6353 -1.617548,1.23336 6.355628,-4.70309 -1.156089,0.76811 0.419791,-0.30428 0.203535,-0.22394 0.385082,-0.46258 0.54687,-0.73861 0.123138,-0.34781 0.170873,-0.55176 0.02239,-0.91859 -0.13066,-0.30835 -0.258473,-0.61631 -0.423479,-0.89605 -0.182166,-0.25695 -0.374437,-0.5018 -0.565007,-0.74777 -0.182408,-0.24116 -0.38177,-0.47162 -0.625282,-0.59777 -0.323234,-0.13739 -0.659033,-0.10699 -0.994585,-0.0915 -0.338329,0.0202 -0.680446,0.0465 -1.003336,0.1934 -0.285819,0.13754 -0.575949,0.25134 -0.86581,0.37345 -0.292993,0.0852 -0.593008,0.19211 -0.893363,0.11241 -0.04063,-0.0164 -0.08452,-0.0226 -0.121879,-0.0492 -0.05635,-0.0402 -0.279824,-0.31728 -0.156184,-0.41767 0.607248,-0.49309 1.2328,-0.94622 1.854944,-1.40604 0.04304,-0.0317 0.09259,-0.045 0.13889,-0.0676 0.719371,-0.39751 0.158295,-0.0968 -1.487184,1.16667 -0.04233,0.0325 0.08631,-0.0611 0.128661,-0.0936 0.627122,-0.48106 1.253607,-0.96354 1.879695,-1.44689 0.493403,-0.38093 -2.315817,1.83314 -1.485748,1.13027 0.227785,-0.2593 0.492562,-0.46278 0.70743,-0.74295 0.234631,-0.29593 0.521853,-0.50021 0.771893,-0.77311 0.243949,-0.31562 0.537279,-0.55095 0.791868,-0.85192 0.241659,-0.24614 0.451385,-0.54291 0.706284,-0.76957 0.289114,-0.22708 0.53082,-0.53467 0.790088,-0.81347 0.250301,-0.22052 0.466192,-0.49338 0.681903,-0.76485 0.188459,-0.30301 0.41818,-0.55808 0.607019,-0.8624 0.199263,-0.36626 0.423851,-0.70645 0.621071,-1.07584 0.208607,-0.29546 0.349727,-0.65807 0.49433,-1.01116 0.153478,-0.31621 0.243449,-0.68617 0.343824,-1.03536 0.118213,-0.38525 0.162095,-0.83768 0.178049,-1.24888 -0.0028,-0.46864 -0.0039,-0.93891 -0.04776,-1.40475 -0.04822,-0.40447 -0.152597,-0.78251 -0.227431,-1.17771 -0.08499,-0.38396 -0.237036,-0.72909 -0.350386,-1.09884 -0.128519,-0.34629 -0.222236,-0.72616 -0.443241,-0.9961 -0.206423,-0.24928 -0.405843,-0.50925 -0.637591,-0.71927 -0.260233,-0.2181 -0.527587,-0.42098 -0.81094,-0.58356 -0.315648,-0.16225 -0.627592,-0.33482 -0.950835,-0.47092 -0.34818,-0.14822 -0.698213,-0.28199 -1.048373,-0.42171 -0.362087,-0.14491 -0.729024,-0.2684 -1.089579,-0.4193 -0.328068,-0.16006 -0.658253,-0.31643 -0.995632,-0.43891 -0.367337,-0.16535 -0.728388,-0.35643 -1.080265,-0.5723 -0.298009,-0.17014 -0.587925,-0.35792 -0.877489,-0.55104 -0.315648,-0.22351 -0.635557,-0.43985 -0.964594,-0.62668 0,0 1.723564,-1.49195 1.723564,-1.49195 z"
       inkscape:connector-curvature="0"
       inkscape:export-xdpi="99.147537"
       inkscape:export-ydpi="99.147537" />
    <path
       style="fill:#786721;stroke-width:0.21512936"
       id="path3767"
       d="m 52.334397,195.25452 c 0.127828,0.49585 0.338906,0.93999 0.507376,1.41101 0.146003,0.43954 0.34671,0.83867 0.470773,1.29052 0.07744,0.38749 0.179826,0.76525 0.304067,1.13065 0.104868,0.34351 0.233434,0.67405 0.364187,1.00191 0.158891,0.35249 0.307813,0.71346 0.475155,1.059 0.14989,0.32852 0.262939,0.68368 0.406402,1.01637 0.139803,0.31019 0.290602,0.61142 0.431985,0.92158 0.177009,0.2686 0.285419,0.59701 0.455798,0.87188 0.143957,0.30857 0.300635,0.60306 0.460734,0.89744 0.195212,0.24809 0.350097,0.53325 0.514382,0.81461 0.242096,0.35879 0.479772,0.7218 0.737982,1.06082 0.22396,0.36321 0.496244,0.66605 0.733672,1.01209 0.210718,0.28764 0.434357,0.56024 0.636605,0.85833 0.190468,0.25171 0.391541,0.49124 0.572156,0.75565 0.180148,0.25548 0.384974,0.46145 0.60864,0.64717 0.209625,0.24255 0.459339,0.40936 0.690755,0.61377 0.283436,0.18377 0.555567,0.39137 0.86248,0.50084 0.204939,0.0308 0.440264,0.14671 0.644422,0.0469 0.04211,-0.0206 0.153683,-0.12219 0.114467,-0.0934 -0.555604,0.40751 -1.109153,0.81984 -1.663732,1.22976 0.253523,-0.22425 0.325374,-0.56079 0.403175,-0.92613 0.09048,-0.38255 0.170058,-0.76716 0.266588,-1.14732 0.09714,-0.44058 0.202482,-0.87475 0.263397,-1.32713 0.08126,-0.42474 0.170047,-0.84241 0.213669,-1.27758 0.06345,-0.47866 -0.01243,-0.94887 -0.06565,-1.42127 -0.04065,-0.44571 -0.154973,-0.86949 -0.212433,-1.31205 -0.101469,-0.40198 -0.173549,-0.80936 -0.213087,-1.22953 -0.09113,-0.39128 -0.126962,-0.80064 -0.207171,-1.19438 -0.0995,-0.38861 -0.139771,-0.7935 -0.232184,-1.18433 -0.07402,-0.37616 -0.150834,-0.75518 -0.275923,-1.10852 -0.140479,-0.38602 -0.217029,-0.8036 -0.337264,-1.20069 -0.122729,-0.4512 -0.244516,-0.90288 -0.359076,-1.35804 -0.110156,-0.35462 -0.251382,-0.68959 -0.364134,-1.0422 -0.133367,-0.32577 -0.251356,-0.65874 -0.393107,-0.97893 -0.165648,-0.36955 -0.332296,-0.74606 -0.524012,-1.09402 -0.152344,-0.34717 -0.318844,-0.6785 -0.493599,-1.00645 -0.192745,-0.26699 -0.335294,-0.58813 -0.488278,-0.8952 -0.149732,-0.34205 -0.32125,-0.67425 -0.530212,-0.95874 -0.180566,-0.26392 -0.361953,-0.53246 -0.564281,-0.76851 0,0 1.748986,-1.42283 1.748986,-1.42283 v 0 c 0.199404,0.2505 0.39047,0.51393 0.571114,0.78774 0.207791,0.30545 0.38905,0.64194 0.545119,0.99661 0.15694,0.30191 0.298951,0.61874 0.488138,0.88845 0.174866,0.32728 0.335007,0.66341 0.48809,1.00878 0.190603,0.35868 0.367503,0.73328 0.534826,1.1111 0.151432,0.32796 0.27116,0.67394 0.409282,1.01117 0.112641,0.36057 0.25909,0.70096 0.368551,1.06406 0.108251,0.45093 0.227373,0.89734 0.347516,1.34255 0.125735,0.38976 0.20622,0.7997 0.340615,1.18398 0.129227,0.36375 0.215227,0.752 0.287676,1.14112 0.09432,0.39387 0.137962,0.79893 0.234806,1.19206 0.08882,0.40505 0.116198,0.83154 0.219136,1.23359 0.03482,0.41738 0.103169,0.82167 0.209108,1.21848 0.05265,0.44623 0.168783,0.87117 0.210063,1.31879 0.05384,0.4921 0.147593,0.9815 0.09299,1.48122 -0.03278,0.44072 -0.09096,0.87424 -0.212005,1.28976 -0.05042,0.46468 -0.146994,0.90829 -0.244422,1.35768 -0.08436,0.38705 -0.196315,0.75794 -0.264931,1.15145 -0.106568,0.36588 -0.102681,0.79394 -0.352569,1.06457 -1.231352,0.95477 -1.554696,1.76829 -2.69827,1.34681 -0.312795,-0.14295 -0.604576,-0.35372 -0.894867,-0.56111 -0.236728,-0.19411 -0.479075,-0.3796 -0.694738,-0.61349 -0.229927,-0.20843 -0.448504,-0.42769 -0.63558,-0.70259 -0.185688,-0.25897 -0.382633,-0.50369 -0.571769,-0.75823 -0.205292,-0.29302 -0.421173,-0.57325 -0.630619,-0.86107 -0.239764,-0.3372 -0.500141,-0.649 -0.724088,-1.00631 -0.264652,-0.34876 -0.509698,-0.72209 -0.763874,-1.08377 -0.162051,-0.28616 -0.330448,-0.55915 -0.516696,-0.82001 -0.159939,-0.28976 -0.310266,-0.58555 -0.456299,-0.88713 -0.169195,-0.28993 -0.292333,-0.61841 -0.468446,-0.90181 -0.143061,-0.31179 -0.294589,-0.61561 -0.434675,-0.92882 -0.139976,-0.33054 -0.254081,-0.67979 -0.399649,-1.00667 -0.166226,-0.35474 -0.318662,-0.72025 -0.48481,-1.07543 -0.1328,-0.33279 -0.263445,-0.66865 -0.369934,-1.01724 -0.126317,-0.37247 -0.234695,-0.75659 -0.308177,-1.15339 -0.11475,-0.44673 -0.31409,-0.8397 -0.456485,-1.27135 -0.162367,-0.47096 -0.364565,-0.9162 -0.520754,-1.3915 0,0 1.792919,-1.34305 1.792919,-1.34305 z"
       inkscape:connector-curvature="0"
       inkscape:export-xdpi="99.147537"
       inkscape:export-ydpi="99.147537" />
    <path
       style="fill:#ff7f2a;stroke-width:0.21512936"
       id="path3771"
       d="m 65.86904,219.50903 c 0.02217,-0.56471 -0.0057,-1.13079 0.02529,-1.69468 0.03579,-0.44675 0.115647,-0.87751 0.219092,-1.30393 0.07746,-0.40043 0.194196,-0.78559 0.309716,-1.16918 0.112311,-0.40389 0.234006,-0.8006 0.339282,-1.20786 0.08934,-0.35175 0.220617,-0.68072 0.31968,-1.02698 0.744018,-2.62832 1.646006,-2.04062 2.113664,-0.98797 0.107354,0.36464 0.225098,0.72502 0.301519,1.10412 0.113082,0.36149 0.184511,0.73902 0.290519,1.10356 0.08246,0.41451 0.248674,0.78101 0.379431,1.16887 0.144303,0.33738 0.269725,0.68507 0.41899,1.01919 0.106725,0.2657 0.05674,0.12865 0.149307,0.4117 0,0 -1.786854,1.31984 -1.786854,1.31984 v 0 c -0.08309,-0.25815 -0.03714,-0.13211 -0.137741,-0.37799 -0.158161,-0.34084 -0.283916,-0.70087 -0.430946,-1.04958 -0.129307,-0.39278 -0.300858,-0.76158 -0.386767,-1.17823 -0.109006,-0.3744 -0.182566,-0.761 -0.299987,-1.13174 -0.06726,-0.35556 -0.181301,-0.68843 -0.28013,-1.02931 -0.0054,-0.0105 -0.130235,-0.25047 -0.133429,-0.24337 -0.0076,0.0167 -0.01196,0.0679 7.63e-4,0.0582 1.398733,-1.05981 2.276165,-1.88086 1.674781,-1.31968 -0.122808,0.33521 -0.22735,0.67989 -0.329738,1.02603 -0.06978,0.19542 -0.09799,0.39576 -0.157223,0.59654 -0.03873,0.13121 -0.09757,0.25119 -0.136246,0.38246 -0.02165,0.0734 -0.03374,0.15128 -0.05062,0.2269 -0.106867,0.38223 -0.236361,0.75689 -0.312736,1.15022 -0.09239,0.42074 -0.210752,0.82412 -0.243473,1.26538 -0.06701,0.54577 -0.01906,1.10581 -0.02005,1.65671 0,0 -1.836106,1.23081 -1.836106,1.23081 z"
       inkscape:connector-curvature="0"
       inkscape:export-xdpi="99.147537"
       inkscape:export-ydpi="99.147537" />
    <path
       style="fill:#ff7f2a;stroke-width:0.21512936"
       id="path3773"
       d="m 71.144319,216.25187 c 0.388631,0.0297 0.770884,0.14551 1.15895,0.20021 0.359359,-0.006 0.698416,0.1434 1.048686,0.22329 0.333069,0.13588 0.632378,0.37188 0.910643,0.64421 0.286756,0.23521 0.518164,0.55356 0.740632,0.88368 0.2069,0.34464 0.40714,0.70158 0.643919,1.01223 0.20334,0.26595 0.374544,0.56045 0.531565,0.87596 0.1393,0.24082 0.22526,0.51553 0.29845,0.7993 0,0 -1.794705,1.29956 -1.794705,1.29956 v 0 c -0.06428,-0.2639 -0.143831,-0.51471 -0.278032,-0.73272 -0.151432,-0.30017 -0.316161,-0.57971 -0.509952,-0.83491 -0.229127,-0.32396 -0.432316,-0.67749 -0.641812,-1.02323 -0.218641,-0.3089 -0.446003,-0.60654 -0.717956,-0.8354 -0.26491,-0.24021 -0.546018,-0.45204 -0.863408,-0.54423 -0.343336,-0.0915 -0.682338,-0.20169 -1.034922,-0.21336 -0.385222,-0.0649 -0.769041,-0.185 -1.159211,-0.16106 0,0 1.667153,-1.59353 1.667153,-1.59353 z"
       inkscape:connector-curvature="0"
       inkscape:export-xdpi="99.147537"
       inkscape:export-ydpi="99.147537" />
    <path
       style="fill:#ff7f2a;stroke-width:0.21512936"
       id="path3775"
       d="m 75.014545,220.70046 c 0.293065,-0.30887 0.565886,-0.64992 0.836922,-0.99145 0.239619,-0.24565 0.482129,-0.4872 0.725709,-0.72617 0.716651,-0.69671 1.510684,-1.18666 2.28212,-1.79882 0.536401,-0.42563 -1.085719,0.82248 -1.630179,1.23003 -0.04287,0.032 0.08355,-0.0691 0.12531,-0.10353 0.818696,-0.49709 1.665537,-1.46052 2.613576,-1.72286 0.123924,-0.11211 0.278831,-0.13152 0.413159,-0.20623 0.140307,-0.0781 0.221576,-0.16728 0.377436,-0.19563 0.313622,0.11301 0.340015,0.51736 0.307909,0.87765 -0.06283,0.37037 -0.184168,0.71898 -0.327638,1.04653 -0.157112,0.3018 -0.300226,0.61629 -0.429025,0.9404 -0.132815,0.32471 -0.275584,0.64647 -0.372968,0.99304 -0.09447,0.42048 -0.08727,0.86099 -0.154422,1.28843 -0.06332,0.39083 -0.179873,0.7618 -0.276147,1.14024 -0.07107,0.23808 -0.138622,0.47651 -0.223253,0.70693 0,0 -1.870684,1.11841 -1.870684,1.11841 v 0 c 0.08299,-0.2296 0.17389,-0.44615 0.229388,-0.69163 0.06708,-0.18283 0.09115,-0.36793 0.144633,-0.5575 0.03272,-0.11601 0.08554,-0.22139 0.114829,-0.33893 0.01662,-0.0668 0.02208,-0.13738 0.03313,-0.20612 0.08131,-0.43279 0.08935,-0.86801 0.145987,-1.3072 0.07543,-0.3781 0.221412,-0.70153 0.350393,-1.04979 0.158663,-0.30348 0.258023,-0.65752 0.422875,-0.95821 0.17843,-0.27229 0.253422,-0.60712 0.367788,-0.92801 0.01692,-0.14747 0.117614,-0.52459 -0.09713,-0.42484 -0.257462,0.14521 -0.514704,0.29376 -0.784937,0.39468 -0.774022,0.32234 -2.147986,1.36158 0.931742,-0.88974 -1.165608,0.84386 -3.812027,2.8983 -0.393674,0.29487 0.33307,-0.25367 -0.698426,0.63613 -0.393502,0.3493 -0.242115,0.24374 -0.476113,0.49748 -0.736032,0.70702 -0.285639,0.31585 -0.544827,0.67483 -0.818473,1.00734 0,0 -1.914847,1.00183 -1.914848,1.00183 z"
       inkscape:connector-curvature="0"
       inkscape:export-xdpi="99.147537"
       inkscape:export-ydpi="99.147537" />
    <path
       style="fill:#ff7f2a;stroke-width:0.21512936"
       id="path3777"
       d="m 65.271815,220.33799 c -0.429055,-0.0135 -0.858315,-0.009 -1.287458,-0.009 -0.355807,-0.012 -0.730386,0.0164 -1.05544,0.22281 -0.712075,0.3987 -0.224009,0.13332 1.513093,-1.15221 0.03997,-0.0297 -0.07834,0.0627 -0.117158,0.0949 -0.132753,0.10985 -0.263002,0.22506 -0.394069,0.33839 -0.240172,0.2161 -0.465968,0.44992 -0.643177,0.75471 -0.179564,0.28751 -0.272603,0.64771 -0.374561,0.99058 -0.07103,0.39393 -0.16604,0.77996 -0.239564,1.17321 -0.07277,0.45049 -0.08107,0.91252 -0.08891,1.3712 -0.0044,0.43922 -0.0355,0.88422 0.09074,1.29976 0.09143,0.34341 0.243414,0.63482 0.401066,0.92845 0.169508,0.26745 0.366656,0.49962 0.543029,0.75837 0.190263,0.24733 0.390035,0.48407 0.569421,0.74564 0.20128,0.21908 0.455022,0.37277 0.702405,0.48578 0.252108,0.19692 0.53354,0.29776 0.803548,0.44191 0.298431,0.0862 0.585828,0.21165 0.881154,0.31477 0.05047,0.0135 0.100934,0.0262 0.151401,0.0394 0,0 -1.685418,1.53832 -1.685418,1.53832 v 0 c -0.05295,-0.017 -0.105891,-0.034 -0.158843,-0.051 -0.29838,-0.11632 -0.601655,-0.20553 -0.895606,-0.33882 -0.268008,-0.14461 -0.546647,-0.25197 -0.80123,-0.43795 -0.26879,-0.14942 -0.547161,-0.31219 -0.755049,-0.58787 -0.18448,-0.25585 -0.380446,-0.49714 -0.569844,-0.74658 -0.186441,-0.26127 -0.38459,-0.50786 -0.555853,-0.78756 -0.167855,-0.30972 -0.322953,-0.62411 -0.423026,-0.98418 -0.140149,-0.44995 -0.13579,-0.92067 -0.122273,-1.40082 0.0049,-0.47272 0.0093,-0.94774 0.06592,-1.4157 0.06019,-0.40836 0.180913,-0.78944 0.227081,-1.20124 0.0872,-0.37006 0.206086,-0.73503 0.343617,-1.07513 0.195058,-0.29663 0.351746,-0.62795 0.627496,-0.81839 0.650827,-0.71923 1.878001,-1.50016 2.384332,-1.8722 0.04302,-0.0316 0.09236,-0.0453 0.138528,-0.0679 0.357493,-0.11797 0.717377,-0.1665 1.08649,-0.13708 0.435096,6.4e-4 0.870294,0.005 1.305305,-0.009 0,0 -1.667153,1.59353 -1.667153,1.59353 z"
       inkscape:connector-curvature="0"
       inkscape:export-xdpi="99.147537"
       inkscape:export-ydpi="99.147537" />
    <path
       style="fill:#ff7f2a;fill-opacity:1;stroke-width:0.21512936"
       id="path3847"
       d="m 78.428262,223.42944 c 0.127921,0.18119 0.223226,0.39571 0.345335,0.583 0.100414,0.15078 0.191226,0.30881 0.273917,0.47749 0.07749,0.14085 0.172761,0.26059 0.258578,0.39191 0.08836,0.12806 0.189976,0.22945 0.301269,0.32077 0.09914,0.12535 0.214354,0.21965 0.322728,0.3282 0.114766,0.099 0.223311,0.2159 0.318338,0.34668 0.09779,0.12128 0.197876,0.2415 0.287629,0.37357 0.07464,0.158 0.171372,0.29398 0.240672,0.45615 0.07955,0.14401 0.148568,0.29638 0.22518,0.44277 0.07542,0.15808 0.13025,0.33124 0.200282,0.49305 0.07908,0.17463 0.104097,0.37626 0.15299,0.56648 0.04452,0.21805 0.07901,0.43954 0.11741,0.65983 0.04175,0.24771 0.0527,0.50128 0.0595,0.75403 0.0017,0.24826 0.01117,0.49725 -0.0027,0.74503 -0.0172,0.22486 -0.09912,0.42096 -0.176594,0.6174 -0.07055,0.16968 -0.136828,0.34223 -0.211809,0.50868 -0.0827,0.14145 -0.161623,0.28473 -0.239958,0.43032 -0.07594,0.14792 -0.163911,0.28536 -0.259222,0.41224 -0.09245,0.12775 -0.185031,0.25588 -0.282646,0.37688 -0.09484,0.12444 -0.187014,0.25259 -0.284484,0.37346 -0.0976,0.12791 -0.191465,0.26126 -0.293911,0.38253 -0.120243,0.12188 -0.23967,0.24456 -0.357549,0.37039 -0.377488,0.44375 -0.940394,0.76977 -1.326636,1.05721 -0.328204,0.24425 0.654486,-0.49293 0.981729,-0.73939 -0.127198,0.6169 -1.005482,0.673 -1.415514,1.0418 -0.140826,0.10398 -0.303495,0.11767 -0.461175,0.13106 -0.186266,0.0105 -0.372795,0.009 -0.559197,0.009 -0.189852,-6.5e-4 -0.379707,-6.5e-4 -0.569561,-0.001 -0.189538,-2.3e-4 -0.379076,-2.3e-4 -0.568614,-2.5e-4 -0.189462,0 -0.378923,2e-5 -0.568385,2e-5 -0.189461,0 -0.378923,0 -0.568382,0 -0.126317,0 -0.252618,0 -0.378928,0 0,0 0.977625,-0.93445 0.977625,-0.93445 v 0 c 0.126316,0 0.252616,0 0.378926,0 0.189459,0 0.378922,-2e-5 0.568382,-2e-5 0.189464,0 0.378928,0 0.568391,2e-5 0.18956,3e-5 0.37912,7e-5 0.568679,5e-4 0.189831,4.9e-4 0.37966,6.3e-4 0.569491,0.001 0.184686,-5e-4 0.369832,6.5e-4 0.553868,-0.0224 0.154296,-0.0263 0.301853,-0.0725 0.434056,-0.18618 0.426032,-0.24719 1.131854,-0.86629 -0.662592,0.53792 3.509342,-2.66174 -0.889587,0.71868 0.355026,-0.28663 0.102193,-0.14792 0.230878,-0.2666 0.356323,-0.37738 0.105135,-0.11601 0.197014,-0.24355 0.297205,-0.36515 0.08395,-0.13709 0.189273,-0.25095 0.284443,-0.37362 0.084,-0.13678 0.189412,-0.24983 0.283777,-0.37339 0.08235,-0.13768 0.185547,-0.25082 0.266722,-0.39042 0.06971,-0.15663 0.150394,-0.29958 0.237062,-0.43912 0.09873,-0.14235 0.137002,-0.32857 0.223759,-0.48225 0.06296,-0.19339 0.166731,-0.36155 0.193313,-0.57422 0.03813,-0.236 0.0069,-0.48292 0.01416,-0.72277 -0.0047,-0.24323 -0.0118,-0.48757 -0.04921,-0.72665 -0.0366,-0.21503 -0.07788,-0.42807 -0.115207,-0.64256 -0.04672,-0.18102 -0.07044,-0.37226 -0.142966,-0.5397 -0.06748,-0.15883 -0.122524,-0.32679 -0.195612,-0.48165 -0.07665,-0.15158 -0.151385,-0.30391 -0.229836,-0.45414 -0.06488,-0.15075 -0.156578,-0.27772 -0.226995,-0.42416 -0.09167,-0.12715 -0.188289,-0.24826 -0.285218,-0.36834 -0.09483,-0.12023 -0.197478,-0.23031 -0.307863,-0.32505 -0.110926,-0.10082 -0.213986,-0.21201 -0.319619,-0.32212 -0.115757,-0.10549 -0.226133,-0.21579 -0.318714,-0.35677 -0.0919,-0.13437 -0.187367,-0.26452 -0.267024,-0.41255 -0.08032,-0.16288 -0.167886,-0.31614 -0.263063,-0.46438 -0.11826,-0.1949 -0.215752,-0.41232 -0.354705,-0.58437 0,0 1.047177,-0.81756 1.047177,-0.81756 z"
       inkscape:connector-curvature="0"
       inkscape:export-xdpi="99.147537"
       inkscape:export-ydpi="99.147537" />
    <path
       style="fill:#ff7f2a;fill-opacity:1;stroke-width:0.21512936"
       id="path3849"
       d="m 80.0236,232.46279 c -0.009,0.28535 -0.0065,0.57111 -0.0058,0.85664 0.0042,0.21514 0.06133,0.41057 0.114688,0.60991 0.04855,0.16346 0.136639,0.2902 0.218302,0.42473 0.07196,0.14822 0.146223,0.29762 0.239964,0.4238 0.088,0.12955 0.176302,0.26176 0.275516,0.37701 0.0947,0.12414 0.18378,0.25712 0.284339,0.3733 0.09486,0.12414 0.183794,0.25742 0.284337,0.37379 0.09477,0.12415 0.183681,0.25751 0.284204,0.3739 0.09475,0.12415 0.18367,0.2575 0.284191,0.37389 0.116261,0.0847 0.207434,0.21479 0.326515,0.29275 0.120887,0.0927 0.221785,0.2181 0.330944,0.33116 0.124837,0.11677 0.242147,0.24636 0.364548,0.36754 0.106158,0.11993 0.199276,0.25814 0.304521,0.37908 0.08575,0.13919 0.210851,0.21519 0.312303,0.33152 0.121013,0.12174 0.252558,0.22289 0.367321,0.35506 0.126363,0.12806 0.257944,0.24502 0.386939,0.36853 0.140637,0.12655 0.289351,0.24076 0.426271,0.37435 0.121234,0.11662 0.241942,0.23095 0.371001,0.33272 0.144839,0.11978 0.293114,0.23217 0.440732,0.3462 0.143107,0.0707 0.252979,0.21522 0.388733,0.30223 0.138607,0.0481 0.246608,0.17628 0.375387,0.25179 0.135601,0.0621 0.264854,0.14536 0.394288,0.2273 0.137364,0.0531 0.240314,0.18879 0.367263,0.26844 0.138591,0.0475 0.246356,0.17587 0.374901,0.2515 0.118259,0.0942 0.238635,0.19193 0.368147,0.25764 0.123924,0.0871 0.246255,0.18379 0.37807,0.24934 0.124601,0.0862 0.246988,0.18339 0.379038,0.24913 0.119393,0.0995 0.244579,0.18785 0.359987,0.29478 0.128048,0.0743 0.239797,0.18009 0.35544,0.28193 0.123437,0.0826 0.239914,0.18955 0.340029,0.31582 0.09637,0.12098 0.199757,0.22566 0.312872,0.31873 0.110754,0.10744 0.20474,0.23948 0.309515,0.35585 0.113727,0.12805 0.195776,0.29056 0.289609,0.44164 0.09094,0.17269 0.176034,0.35 0.228904,0.54908 0.0524,0.17735 0.116607,0.34762 0.169835,0.52435 0.06159,0.16665 0.130738,0.32883 0.186138,0.49929 0.04567,0.18043 0.101343,0.35611 0.163532,0.52767 0.04982,0.18993 0.112437,0.37333 0.152282,0.5677 0.03382,0.20469 0.08649,0.40082 0.113633,0.60789 0.04268,0.18744 0.07552,0.3774 0.126663,0.56118 0.05481,0.19927 0.0657,0.41066 0.108141,0.6141 0.049,0.21962 0.06343,0.44765 0.07273,0.67505 0.0041,0.24572 0.01385,0.49231 3.76e-4,0.7377 -0.01805,0.20453 -0.0626,0.39681 -0.14498,0.57181 -0.07631,0.15062 -0.169633,0.28771 -0.27245,0.4078 -0.405065,0.38379 -0.838878,0.67515 -1.281456,1.00468 -0.105261,0.0501 -0.05597,0.0185 -0.148174,0.0937 -0.02392,0.0152 -0.09461,0.063 -0.07166,0.0455 0.324321,-0.24719 0.649749,-0.49185 0.975933,-0.73474 0.02128,-0.0158 -0.03992,0.0373 -0.0611,0.0534 -0.367344,0.27956 -0.736576,0.5548 -1.10433,0.8334 -0.326179,0.24713 0.652508,-0.49386 0.979589,-0.73891 0.02058,-0.0153 -0.03997,0.0333 -0.05989,0.05 -2.999502,2.24491 -0.08501,0.0542 -0.125325,0.0864 -0.436464,0.34835 -0.849305,0.71202 -1.318759,0.95062 -0.0282,0.0105 -0.0575,0.0179 -0.08471,0.0324 -0.05898,0.0418 -0.0832,0.0623 -0.145893,0.0936 -0.07753,0.0388 -0.152172,0.0531 -0.226849,0.10188 -0.155886,0.068 -0.313083,0.13527 -0.473339,0.18552 -0.03054,0.008 -0.06173,0.0105 -0.0916,0.0215 -0.05287,0.0197 -0.101689,0.0555 -0.154186,0.0771 -0.07956,0.0326 -0.153619,0.0448 -0.229497,0.0916 -0.146774,0.0507 -0.283295,0.13347 -0.42892,0.18807 -0.02596,0.006 -0.05275,0.009 -0.07783,0.0205 -0.04595,0.02 -0.08702,0.0566 -0.132911,0.0769 -0.075,0.0331 -0.144256,0.0435 -0.215805,0.0895 -0.14797,0.0838 -0.310306,0.12701 -0.452782,0.22558 -0.150299,0.0642 -0.293647,0.15179 -0.445397,0.21007 -0.0262,0.008 -0.05322,0.0105 -0.07859,0.0211 -0.04619,0.0203 -0.08753,0.0569 -0.133666,0.0774 -0.07503,0.0331 -0.144366,0.0433 -0.215981,0.0894 -0.09272,0.0698 -0.201673,0.0635 -0.301237,0.0974 -0.04825,0.0164 -0.09292,0.0471 -0.140118,0.0682 -0.152769,0.0358 -0.288312,0.1264 -0.440843,0.16605 -0.131698,0.11421 -0.29476,0.10142 -0.435448,0.17619 -0.15447,0.0782 -0.320195,0.0933 -0.483796,0.10518 -0.182213,0.0646 -0.368822,0.0971 -0.556527,0.11632 -0.168742,0.0208 -0.330146,0.0904 -0.499798,0.11662 -0.167036,-0.003 -0.321184,0.0769 -0.484323,0.11195 -0.177723,0.0313 -0.357348,0.0337 -0.536339,0.0363 -0.159213,0.0614 -0.322154,0.0925 -0.487096,0.10984 -0.169375,-0.0105 -0.326603,0.0683 -0.491853,0.10308 -0.177924,0.0308 -0.35769,0.0335 -0.536853,0.0361 -0.173603,-0.0232 -0.336112,0.0533 -0.5054,0.0879 -0.177954,0.0306 -0.357692,0.0336 -0.536865,0.0364 -0.18584,0.0552 -0.374061,0.0894 -0.563843,0.10879 -0.190408,0.0158 -0.38129,0.0162 -0.572002,0.017 -0.167373,0.006 -0.328848,0.0743 -0.49613,0.0996 -0.18149,0.0221 -0.363931,0.0232 -0.546038,0.0247 -0.182662,-0.008 -0.3581,-0.008 -0.535543,0.0492 -0.167652,0.0516 -0.339987,0.0625 -0.511385,0.0706 -0.18761,0.006 -0.375304,0.006 -0.562958,0.006 -0.18965,-2.5e-4 -0.3793,-6.3e-4 -0.568949,-6.3e-4 -0.189503,-1.2e-4 -0.379007,-1.2e-4 -0.568512,-1.4e-4 -0.18946,0 -0.378924,0 -0.568387,0 -0.189462,0 -0.378924,2e-5 -0.568387,2e-5 -0.189462,0 -0.378925,0 -0.568389,0 -0.170962,0.009 -0.333092,-0.0635 -0.488242,-0.14882 -0.14273,-0.0722 -0.282116,-0.17443 -0.407067,-0.29134 -0.125435,-0.10894 -0.265697,-0.18442 -0.39275,-0.28856 -0.140149,-0.0897 -0.261504,-0.22037 -0.402722,-0.30655 -0.126222,-0.10699 -0.262544,-0.18526 -0.389556,-0.29136 -0.134909,-0.10323 -0.267098,-0.21109 -0.40368,-0.3112 -0.119125,-0.11075 -0.221582,-0.2477 -0.344962,-0.35085 -0.124916,-0.11421 -0.233512,-0.25347 -0.350966,-0.37941 -0.09977,-0.12233 -0.189876,-0.25821 -0.292198,-0.37679 -0.134814,-0.1671 -0.281886,-0.31386 -0.415293,-0.48275 -0.146003,-0.19748 -0.297369,-0.39324 -0.412592,-0.62434 -0.09503,-0.16237 -0.162845,-0.3477 -0.241891,-0.52378 -0.07645,-0.18598 -0.134877,-0.38433 -0.211253,-0.57019 -0.06633,-0.16759 -0.120699,-0.3438 -0.190911,-0.50866 -0.06639,-0.16366 -0.120101,-0.33639 -0.189209,-0.49804 -0.0676,-0.18587 -0.129575,-0.37329 -0.20432,-0.55456 -0.07524,-0.22031 -0.158189,-0.43599 -0.223842,-0.66167 -0.06479,-0.1947 -0.141549,-0.38216 -0.203828,-0.57814 -0.06104,-0.2028 -0.149842,-0.38534 -0.205099,-0.59122 -0.05465,-0.18016 -0.12147,-0.353 -0.176444,-0.5328 -0.07344,-0.20111 -0.112736,-0.41778 -0.171501,-0.62616 -0.05737,-0.20501 -0.06844,-0.42309 -0.111776,-0.63282 -0.0487,-0.21976 -0.06307,-0.44783 -0.07229,-0.67526 -0.0044,-0.24563 -0.01369,-0.49213 -1.87e-4,-0.73742 0.02582,-0.22401 0.06284,-0.44448 0.120399,-0.65808 0.06391,-0.23441 0.184935,-0.41899 0.306728,-0.60372 0.109447,-0.17275 0.241885,-0.30828 0.378693,-0.43992 3.001603,-2.2634 0.08542,-0.0623 0.127229,-0.0956 0.362682,-0.28787 0.731847,-0.56144 1.101031,-0.83463 0.02159,-0.016 0.04801,-0.0175 0.07018,-0.032 0.02072,-0.0135 0.03827,-0.0343 0.05741,-0.0515 0.02102,-0.0135 0.04206,-0.0274 0.06309,-0.0412 0.151998,-0.0757 0.300414,-0.1567 0.449104,-0.24229 0.154249,-0.0521 0.292842,-0.14612 0.449668,-0.18802 0.17081,-0.0823 0.348799,-0.12866 0.523644,-0.19347 0.180677,-0.0315 0.350585,-0.10503 0.526515,-0.16189 0.165344,-0.0136 0.318387,-0.0793 0.478254,-0.12791 0.163868,-0.012 0.314981,-0.0761 0.473121,-0.12429 0.172159,-0.0438 0.348028,-0.0488 0.522782,-0.0534 0.188697,-0.003 0.37742,-0.001 0.56613,-0.001 0.189661,4.8e-4 0.379323,6.3e-4 0.568985,6.3e-4 0.188037,0.0158 0.386721,0.0462 0.567308,0.12203 0.149339,0.0605 0.300544,0.12941 0.436158,0.23276 0.134862,0.0661 0.249387,0.17304 0.367892,0.27704 0.126096,0.0716 0.220906,0.20637 0.343113,0.28608 0.121266,0.10518 0.240147,0.20764 0.326853,0.36338 0.07851,0.14326 0.168722,0.27349 0.252909,0.41074 0.100965,0.12745 0.182502,0.28553 0.244935,0.45009 0.07286,0.16088 0.157777,0.30544 0.210522,0.48067 0.05887,0.17141 0.141235,0.32128 0.191376,0.49815 0.05566,0.17323 0.120762,0.34083 0.174291,0.51517 0.059,0.22002 0.06782,0.45412 0.07492,0.68502 0.005,0.24893 0.0039,0.498 0.0035,0.747 -0.002,0.24293 0.0094,0.4858 -0.02107,0.72621 -0.02743,0.20791 -0.05728,0.41283 -0.102318,0.61537 -0.04575,0.18257 -0.106332,0.35823 -0.17758,0.52592 -0.07623,0.15125 -0.161044,0.29399 -0.273876,0.39986 -0.385677,0.38854 -0.144366,0.15054 -1.158237,0.88717 -0.02241,0.0162 -0.05066,0.012 -0.07456,0.0241 -0.06959,0.0349 -0.128881,0.0805 -0.201925,0.10819 -0.161672,0.0174 -0.311804,0.0819 -0.468672,0.12896 -0.172517,0.0432 -0.348651,0.0479 -0.523683,0.0524 -0.188747,0.003 -0.377519,0.002 -0.566278,0.002 -0.187941,-0.0402 -0.372586,-0.0801 -0.553669,-0.15677 -0.146664,-0.0549 -0.282715,-0.15002 -0.418272,-0.24047 -0.130251,-0.12896 -0.264941,-0.25056 -0.390113,-0.38794 -0.107496,-0.15923 -0.226143,-0.3061 -0.310684,-0.48881 -0.06883,-0.21399 -0.115443,-0.44129 -0.150771,-0.66887 -0.03423,-0.24958 -0.03948,-0.50357 -0.0432,-0.75644 -0.0024,-0.25013 -0.0015,-0.50028 -0.0011,-0.75042 -0.0028,-0.21449 0.06422,-0.40163 0.130251,-0.59132 0.0609,-0.16522 0.152833,-0.30154 0.242759,-0.43948 0.358978,-0.43824 0.103797,-0.13633 1.157137,-0.89313 0.03487,-0.0251 0.117835,-0.0242 0.154548,-0.012 0.0192,0.006 0.111052,0.0716 0.131273,0.0855 0.01906,0.0217 0.03811,0.0435 0.05717,0.0652 0,0 -1.028394,0.85458 -1.028394,0.85458 v 0 c -0.01385,-0.012 -0.02784,-0.0224 -0.04176,-0.0337 -0.05989,-0.0274 -0.09341,-0.0326 -0.15524,-0.005 -0.02321,0.0105 -0.08888,0.0549 -0.06776,0.0384 0.886744,-0.69509 1.320348,-0.97249 0.916139,-0.71169 -0.10172,0.10925 -0.188156,0.25318 -0.256526,0.3993 -0.08241,0.15194 -0.135774,0.33824 -0.162792,0.52048 -3.75e-4,0.24931 -0.0013,0.49863 4.8e-5,0.74792 0.0024,0.24412 0.0049,0.48935 0.03377,0.73107 0.02995,0.21048 0.07616,0.41668 0.134185,0.61638 0.07728,0.166 0.186552,0.30207 0.285958,0.44498 0.122241,0.1267 0.249554,0.24561 0.380182,0.35696 0.129323,0.0885 0.263843,0.16708 0.404169,0.21971 0.171959,0.0677 0.351569,0.10337 0.530384,0.11992 0.188197,2e-4 0.376451,6.5e-4 0.564588,-0.006 0.171657,-0.009 0.344273,-0.0227 0.510965,-0.082 0.153572,-0.054 0.31145,-0.0763 0.462583,-0.14145 0.06719,-0.0364 0.134846,-0.0716 0.201826,-0.10834 0.02236,-0.012 0.08665,-0.0567 0.06579,-0.0406 -0.504455,0.39215 -1.332645,1.01759 -0.918175,0.70448 0.101139,-0.11421 0.223266,-0.19142 0.287597,-0.357 0.09491,-0.13844 0.129417,-0.316 0.196997,-0.4768 0.03978,-0.20206 0.0914,-0.39573 0.106945,-0.60541 0.04099,-0.23188 0.03863,-0.46272 0.03462,-0.70065 3.75e-4,-0.24702 0.0017,-0.49407 -0.002,-0.74106 -0.005,-0.21286 -0.0093,-0.42944 -0.05926,-0.634 -0.05269,-0.17651 -0.120054,-0.34478 -0.175907,-0.51966 -0.04718,-0.17674 -0.135522,-0.32259 -0.190329,-0.49522 -0.04872,-0.17137 -0.139646,-0.30743 -0.20558,-0.46745 -0.05815,-0.15523 -0.139,-0.29598 -0.231776,-0.4183 -0.08699,-0.13694 -0.174447,-0.27281 -0.255309,-0.41622 -0.07961,-0.13257 -0.192996,-0.2174 -0.299871,-0.30755 -0.118228,-0.0954 -0.225395,-0.21338 -0.349223,-0.29766 -0.113649,-0.10368 -0.234272,-0.18663 -0.359928,-0.26249 -0.135255,-0.0832 -0.273209,-0.15845 -0.418338,-0.20675 -0.17908,-0.053 -0.362972,-0.0936 -0.546983,-0.0886 -0.189673,-1.7e-4 -0.379346,-5e-4 -0.569021,-6.5e-4 -0.188133,-1.6e-4 -0.376324,-6.3e-4 -0.564392,0.006 -0.171416,0.009 -0.343714,0.0236 -0.510145,0.0829 -0.156357,0.0542 -0.315533,0.0773 -0.473079,0.1243 -0.157575,0.0549 -0.318231,0.0784 -0.476503,0.1291 -0.17271,0.0641 -0.349134,0.0998 -0.522331,0.16122 -0.176128,0.0656 -0.355111,0.11707 -0.528843,0.19397 -0.147671,0.0612 -0.292099,0.13738 -0.437081,0.20834 -0.147749,0.0868 -0.303276,0.15076 -0.445981,0.25279 -0.134295,0.098 0.01338,-0.006 -0.125561,0.0829 -0.02143,0.0135 -0.08389,0.06 -0.06326,0.0442 0.325004,-0.24904 1.305082,-0.98447 0.976403,-0.74394 -0.322419,0.23596 -2.443317,1.86373 -0.129606,0.0907 -0.145704,0.11195 -0.276236,0.24502 -0.395766,0.40198 -0.117063,0.17613 -0.251587,0.33616 -0.318893,0.5582 -0.07914,0.19201 -0.09857,0.40726 -0.134909,0.618 -0.03742,0.23259 -0.0069,0.47581 -0.01117,0.7121 0.0072,0.21603 0.0175,0.43332 0.06263,0.64249 0.04339,0.20603 0.05668,0.41762 0.106174,0.62148 0.05753,0.20758 0.09472,0.42384 0.171585,0.62154 0.05424,0.18296 0.123358,0.35751 0.17754,0.54076 0.0511,0.2042 0.140731,0.38353 0.202797,0.58192 0.06073,0.19867 0.138324,0.38785 0.201182,0.58554 0.0617,0.22015 0.146963,0.42612 0.219174,0.64036 0.0739,0.18075 0.139095,0.36575 0.205817,0.55106 0.06823,0.16248 0.123862,0.33386 0.18928,0.49834 0.06952,0.16647 0.125939,0.34214 0.190906,0.51172 0.07385,0.1845 0.131557,0.38001 0.207214,0.56344 0.08087,0.17281 0.14539,0.35768 0.237295,0.52113 0.108503,0.2219 0.252668,0.41033 0.395941,0.59344 0.135884,0.16552 0.282399,0.3143 0.421207,0.47555 0.09736,0.12248 0.190397,0.25069 0.288848,0.3717 0.11058,0.12745 0.220551,0.25552 0.341725,0.36579 0.117488,0.10804 0.222436,0.23626 0.341768,0.34096 0.134483,0.10548 0.269133,0.21011 0.40406,0.31434 0.127828,0.0954 0.259103,0.18182 0.384714,0.28216 0.13782,0.10006 0.267524,0.21859 0.408047,0.31284 0.133697,0.0949 0.267767,0.18932 0.395199,0.29848 0.124775,0.10307 0.255726,0.19682 0.394665,0.26234 0.145971,0.0745 0.300159,0.1124 0.457287,0.10277 0.189464,0 0.378927,0 0.568389,-1e-5 0.189464,0 0.378925,0 0.568389,0 0.189462,0 0.378926,-2e-5 0.568389,1e-5 0.189517,2e-5 0.379031,5e-5 0.568546,2.1e-4 0.18963,2.3e-4 0.379258,6.5e-4 0.568887,5.1e-4 0.186784,-5.1e-4 0.373686,-2.1e-4 0.560288,-0.012 0.16925,-0.0151 0.337377,-0.0402 0.50287,-0.0907 0.180824,-0.0363 0.363835,-0.0164 0.546153,-0.0233 0.179949,-0.005 0.360484,-0.009 0.538906,-0.0427 0.167187,-0.0358 0.332372,-0.0956 0.503458,-0.0806 0.188693,-0.002 0.377671,-0.005 0.565684,-0.0281 0.190669,-0.0272 0.378358,-0.0807 0.569512,-0.0998 0.176631,-0.006 0.353907,-0.0152 0.528031,-0.0581 0.170576,-0.0432 0.339354,-0.0807 0.514278,-0.0662 0.176443,-0.006 0.353691,-0.015 0.527404,-0.0593 0.164604,-0.045 0.327613,-0.0882 0.496659,-0.0919 0.164839,-0.0272 0.325897,-0.0846 0.491757,-0.098 0.176157,-0.006 0.353222,-0.0135 0.526479,-0.0602 0.161439,-0.0463 0.321284,-0.0928 0.486937,-0.10563 0.167003,-0.0381 0.330552,-0.10293 0.501187,-0.10819 0.187939,-0.0278 0.371981,-0.0816 0.559083,-0.11557 0.160847,-0.0217 0.31803,-0.0617 0.470366,-0.13512 0.150346,-0.042 0.293647,-0.10458 0.438891,-0.16909 0.145815,-0.0575 0.288278,-0.1273 0.4363,-0.17538 0.145736,-0.0588 0.298776,-0.085 0.437987,-0.17205 0.145673,-0.0531 0.285101,-0.12791 0.430363,-0.1828 0.145893,-0.0739 0.295411,-0.13377 0.437898,-0.21923 0.153651,-0.0706 0.305612,-0.14686 0.45813,-0.22148 0.145279,-0.0531 0.284314,-0.12791 0.42961,-0.1809 0.141062,-0.0691 0.285441,-0.12204 0.426394,-0.19171 0.160449,-0.056 0.316484,-0.13046 0.478908,-0.17669 0.157223,-0.0615 0.315856,-0.11932 0.467219,-0.20326 0.155492,-0.0635 0.302603,-0.15216 0.454447,-0.22889 0.04989,-0.0302 0.100666,-0.0582 0.150142,-0.0898 0.02134,-0.0135 0.08331,-0.0593 0.0628,-0.0436 -0.325551,0.24914 -1.310856,0.97627 -0.978136,0.7441 0.186227,-0.13001 2.571473,-1.95034 0.125545,-0.0864 0.444741,-0.31996 -0.167365,0.12128 1.160308,-0.88373 0.3253,-0.24625 -0.648581,0.49713 -0.973376,0.74454 -0.0211,0.0161 0.04126,-0.0343 0.06232,-0.0506 1.084718,-0.83503 0.727654,-0.58341 1.169405,-0.89284 0.04941,-0.0304 0.193478,-0.13272 0.146412,-0.0963 -1.760626,1.35796 -1.128204,0.91767 -0.791897,0.58075 0.123327,-0.0778 0.196152,-0.22314 0.29234,-0.34542 0.07771,-0.16355 0.157018,-0.31174 0.16995,-0.51303 0.03745,-0.23265 0.0071,-0.47594 0.01102,-0.71235 -0.0074,-0.21581 -0.01759,-0.43296 -0.06309,-0.64182 -0.04261,-0.19965 -0.05645,-0.40446 -0.104066,-0.60225 -0.05416,-0.1934 -0.08899,-0.39233 -0.135774,-0.58912 -0.02379,-0.20341 -0.07631,-0.39417 -0.1094,-0.59421 -0.03523,-0.1859 -0.09771,-0.35831 -0.142494,-0.54006 -0.06295,-0.17369 -0.120809,-0.35109 -0.165971,-0.53414 -0.05464,-0.17238 -0.126332,-0.33476 -0.187569,-0.50322 -0.05258,-0.17977 -0.119298,-0.35158 -0.171773,-0.53163 -0.04472,-0.18273 -0.125105,-0.34344 -0.207342,-0.50069 -0.08786,-0.14626 -0.172905,-0.29348 -0.281044,-0.41603 -0.09749,-0.11647 -0.192605,-0.23673 -0.300312,-0.33741 -0.114262,-0.10368 -0.223489,-0.21261 -0.323335,-0.3398 -0.101689,-0.11497 -0.214169,-0.21043 -0.330809,-0.29719 -0.11346,-0.10458 -0.234275,-0.18958 -0.354354,-0.27979 -0.114609,-0.0927 -0.225367,-0.19407 -0.346912,-0.27078 -0.128095,-0.0781 -0.25238,-0.16697 -0.379026,-0.24912 -0.128173,-0.0782 -0.252598,-0.16687 -0.378751,-0.25052 -0.127119,-0.0799 -0.250142,-0.17129 -0.371903,-0.26431 -0.124334,-0.0886 -0.242705,-0.19142 -0.376846,-0.25506 -0.120148,-0.0918 -0.231866,-0.20317 -0.364761,-0.26387 -0.12896,-0.0838 -0.262914,-0.15294 -0.39481,-0.22818 -0.124822,-0.0889 -0.243725,-0.19154 -0.377726,-0.25709 -0.130203,-0.10202 -0.250084,-0.22664 -0.388721,-0.31053 -0.146726,-0.11918 -0.299391,-0.22431 -0.444945,-0.34606 -0.127167,-0.1094 -0.250777,-0.22349 -0.372234,-0.3434 -0.140369,-0.12761 -0.284918,-0.24762 -0.425947,-0.37396 -0.133398,-0.12234 -0.266514,-0.24556 -0.39422,-0.37791 -0.118401,-0.12564 -0.248917,-0.22869 -0.368433,-0.35242 -0.107134,-0.10955 -0.226839,-0.19994 -0.315318,-0.33805 -0.09923,-0.12354 -0.194437,-0.25254 -0.298238,-0.3697 -0.120195,-0.1273 -0.243257,-0.24872 -0.36728,-0.36931 -0.101453,-0.1121 -0.203874,-0.22203 -0.319426,-0.30876 -0.119126,-0.0977 -0.226717,-0.21786 -0.341976,-0.32333 -0.09683,-0.12188 -0.189653,-0.24906 -0.284193,-0.37388 -0.09683,-0.12189 -0.189646,-0.24907 -0.284194,-0.37387 -0.09683,-0.12174 -0.189653,-0.24899 -0.284278,-0.37368 -0.09697,-0.12173 -0.190077,-0.24879 -0.284572,-0.37379 -0.09757,-0.12354 -0.191514,-0.25274 -0.280273,-0.38722 -0.09127,-0.13437 -0.171195,-0.28113 -0.244289,-0.43338 -0.09181,-0.14747 -0.182462,-0.29486 -0.237424,-0.47386 -0.05654,-0.21709 -0.119393,-0.42865 -0.126238,-0.66208 5.63e-4,-0.28294 0.0033,-0.56611 -0.0058,-0.84887 0,0 1.084975,-0.72729 1.084975,-0.72729 z"
       inkscape:connector-curvature="0"
       inkscape:export-xdpi="99.147537"
       inkscape:export-ydpi="99.147537" />
    <path
       style="fill:#786721;fill-opacity:1;stroke-width:0.26458332"
       id="path3951"
       d="m 14.937852,255.46406 c 0.525819,0.01 1.051783,0.006 1.577659,0.004 0.411097,-0.009 0.812504,-0.0199 1.214654,0.0688 0.328124,0.0773 0.664874,0.0967 1.000474,0.10975 0.37137,0.0105 0.742941,0.009 1.114421,0.009 0.378257,-5.3e-4 0.756513,-8e-4 1.13477,-0.001 0.378094,-2e-4 0.756189,-2.1e-4 1.134284,-2.2e-4 0.377979,-1e-5 0.755958,0 1.133938,0 0.388044,-0.0167 0.764327,-7.9e-4 1.145291,0.0701 0.371187,0.0732 0.748702,0.0974 1.125942,0.11138 0.376761,0.0103 0.753713,0.009 1.13058,0.009 0.377947,-5.2e-4 0.755896,-10e-4 1.133845,-10e-4 0.377992,-2e-4 0.755984,-2.1e-4 1.133975,-2.2e-4 0.377979,0 0.755955,0 1.133933,1e-5 0.377976,0 0.755952,0 1.133927,0 0.377976,0 0.755955,0 1.133931,0 0.326347,0.0764 0.653658,0.13533 0.987626,0.16415 0.363077,0.0247 0.727217,0.0249 1.090956,0.0262 0.365382,-0.0359 0.709263,0.0312 1.063847,0.1031 0.337712,0.0627 0.681765,0.073 1.024224,0.0813 0.374546,0.006 0.749165,0.005 1.123748,0.004 0.378325,-5.3e-4 0.756651,-8e-4 1.134976,-0.001 0.378049,-1.3e-4 0.756099,-1.3e-4 1.134152,-1.4e-4 0.373795,0.0161 0.753877,-0.0377 1.122249,0.035 0.321934,0.0861 0.652383,0.11988 0.983924,0.13944 0.35592,-0.0214 0.69096,0.0493 1.03596,0.12016 0.337638,0.0628 0.681683,0.0725 1.02406,0.0804 0.370673,0.0216 0.74709,-0.0324 1.112493,0.0391 0.322387,0.0855 0.653166,0.11899 0.985007,0.13841 0.368345,0.0164 0.737169,0.0157 1.105797,0.016 0.378161,-2.2e-4 0.756322,-8e-4 1.134483,-0.001 0.378134,-2.7e-4 0.756266,-2.7e-4 1.134398,-2.7e-4 0.377984,-10e-6 0.755968,0 1.133951,0 0.377974,1e-5 0.755947,1e-5 1.133922,1e-5 0.377976,0 0.755952,0 1.133928,0 0.374941,-0.0151 0.755404,0.0359 1.125283,-0.0342 0.374431,-0.0824 0.755566,-0.11913 1.137629,-0.14025 0.379323,-0.0164 0.7591,-0.0158 1.138698,-0.0161 0.333542,-0.008 0.655413,-0.11208 0.988648,-0.15033 0.362291,-0.0338 0.726508,-0.0356 1.090054,-0.0381 0.377849,-10e-4 0.7557,-2.2e-4 1.133549,2.4e-4 0.364368,0.0125 0.71461,0.0124 1.068509,-0.0736 0.334433,-0.0787 0.678299,-0.0955 1.020299,-0.10786 0.374359,-0.01 0.748893,-0.009 1.123347,-0.008 0.378354,5.3e-4 0.756706,10e-4 1.13506,10e-4 0.378055,1.9e-4 0.756113,2e-4 1.134168,2.1e-4 0.377976,0 0.755952,-10e-6 1.133928,-10e-6 0.415308,9e-5 0.830606,0.002 1.245917,10e-4 0.402723,-5.2e-4 0.805448,-10e-4 1.208172,-10e-4 0.379236,-1.8e-4 0.758471,-1.8e-4 1.137709,-1.9e-4 0.377669,0 0.755338,0 1.133006,0 0.423085,10e-4 0.84617,0.002 1.269257,10e-4 0.395666,-5.3e-4 0.791332,-7.9e-4 1.187,-10e-4 0.423553,10e-4 0.847103,0.002 1.270662,10e-4 0.395414,-5.3e-4 0.790829,-7.9e-4 1.186243,-10e-4 0.378383,-1.1e-4 0.756764,-1.1e-4 1.135147,-1.1e-4 0.37773,0 0.75546,10e-6 1.133189,10e-6 0.377952,0 0.755907,0 1.133862,0 0.405818,-7.9e-4 0.811628,0.002 1.217443,0.002 0.466608,-0.002 0.933188,0.002 1.399794,0.002 0.460584,-1.1e-4 0.921165,-0.004 1.381741,-5.3e-4 0.480034,0.002 0.96007,-5.3e-4 1.440104,-0.002 0.392771,-8e-4 0.785542,-10e-4 1.178314,-10e-4 0.377316,-8e-5 0.754633,-6e-5 1.13195,-5e-5 0.377706,10e-6 0.75541,10e-6 1.133113,10e-6 0.377968,0 0.755938,0 1.133906,0 0.377981,0 0.75596,0 1.133941,0 0.377976,0 0.755952,0 1.13393,0 0.372216,-0.0116 0.732512,-0.0106 1.095716,0.0718 0.327711,0.0776 0.664274,0.0965 0.999519,0.10948 0.348086,-0.026 0.677003,0.084 1.016395,0.13893 0.327329,0.0101 0.630785,0.13019 0.950465,0.18782 0.341918,0.0644 0.693579,0.0205 1.032277,0.0946 0.319723,0.0892 0.649266,0.12077 0.979308,0.13965 0.368659,0.0159 0.737772,0.015 1.106694,0.0152 0.315147,-2.1e-4 0.630298,-8e-4 0.945446,-10e-4 0,0 -1.962754,1.42636 -1.962754,1.42636 v 0 c -0.315327,2.6e-4 -0.630655,0.001 -0.945983,5.3e-4 -0.372822,-0.001 -0.746053,-0.002 -1.118169,-0.0278 -0.334922,-0.029 -0.664839,-0.0832 -0.993095,-0.15581 -0.346225,-0.0327 -0.697148,-0.0263 -1.038592,-0.10235 -0.314352,-0.0705 -0.623793,-0.15696 -0.946558,-0.18302 -0.330628,-0.063 -0.657241,-0.13022 -0.996659,-0.11587 -0.3439,-0.0211 -0.686228,-0.0579 -1.022432,-0.13643 -0.352144,-0.0587 -0.708832,-0.03 -1.064516,-0.0358 -0.377979,0 -0.755955,0 -1.133931,0 -0.377981,0 -0.755959,0 -1.13394,0 -0.377971,0 -0.755941,0 -1.133912,1e-5 -0.377716,0 -0.755435,0 -1.133152,10e-6 -0.377269,1e-5 -0.754541,3e-5 -1.131811,-5e-5 -0.391686,-1.2e-4 -0.783373,-2.7e-4 -1.175059,-10e-4 -0.478666,-0.001 -0.957334,-0.003 -1.436,-0.002 -0.460033,0.003 -0.92007,-5.3e-4 -1.380111,-5.3e-4 -0.468249,-1.6e-4 -0.936475,0.004 -1.404726,0.002 -0.407199,5e-5 -0.814393,0.002 -1.221595,0.002 -0.377957,0 -0.755912,0 -1.133869,10e-6 -0.377738,0 -0.755473,0 -1.13321,0 -0.37828,0 -0.75656,1e-5 -1.134841,-1.1e-4 -0.394512,-1.5e-4 -0.789021,-5.3e-4 -1.183531,-10e-4 -0.424458,-5.3e-4 -0.848913,-2.6e-4 -1.273368,10e-4 -0.394756,-1.5e-4 -0.789509,-5.3e-4 -1.184262,-10e-4 -0.424098,-5.3e-4 -0.848193,-2.6e-4 -1.272286,10e-4 -0.377677,0 -0.755351,1e-5 -1.133025,1e-5 -0.379066,-1e-5 -0.758129,-2e-5 -1.137195,-1.9e-4 -0.401656,-2.2e-4 -0.803312,-5.3e-4 -1.204968,-10e-4 -0.416542,-2.6e-4 -0.83307,10e-4 -1.249609,10e-4 -0.377978,0 -0.755957,1e-5 -1.133932,-10e-6 -0.378085,-3e-5 -0.756166,-7e-5 -1.134248,-2.7e-4 -0.378307,-2.6e-4 -0.756613,-10e-4 -1.134922,-10e-4 -0.372497,5.3e-4 -0.745231,2.6e-4 -1.117367,0.0189 -0.337204,0.0217 -0.672172,0.0609 -1.001784,0.13791 -0.361884,0.0558 -0.728229,0.0267 -1.093195,0.0326 -0.377349,-5.3e-4 -0.754716,-0.002 -1.132049,0.002 -0.358762,0.006 -0.718688,0.013 -1.074415,0.0645 -0.333803,0.0542 -0.66371,0.14523 -1.005297,0.12189 -0.376502,0.002 -0.75337,0.003 -1.12916,0.029 -0.379473,0.0313 -0.754364,0.0904 -1.130229,0.14999 -0.380433,0.0213 -0.761674,0.007 -1.142574,0.011 -0.377975,0 -0.755951,0 -1.133927,0 -0.377976,-1e-5 -0.755949,-1e-5 -1.133925,-1e-5 -0.377976,0 -0.755954,-10e-6 -1.133932,2e-5 -0.378087,5e-5 -0.756174,1.2e-4 -1.134261,5.3e-4 -0.378349,2.6e-4 -0.756701,10e-4 -1.13505,5.3e-4 -0.372567,-0.002 -0.74555,-0.002 -1.117383,-0.0287 -0.335039,-0.0293 -0.664882,-0.0849 -0.994724,-0.1497 -0.36467,-0.024 -0.730922,-0.003 -1.096034,-0.0203 -0.352446,-0.0141 -0.70567,-0.0361 -1.051163,-0.11219 -0.336421,-0.0693 -0.672471,-0.0872 -1.015696,-0.0961 -0.334751,-0.0295 -0.664215,-0.0855 -0.993688,-0.1508 -0.366077,-0.0242 -0.733734,-0.003 -1.100386,-0.0103 -0.378021,10e-6 -0.756044,3e-5 -1.134068,2.3e-4 -0.378319,2.3e-4 -0.756639,7.9e-4 -1.134959,10e-4 -0.376425,5e-5 -0.752951,0.001 -1.129244,-0.0104 -0.352192,-0.0144 -0.704969,-0.0371 -1.050433,-0.11194 -0.342622,-0.068 -0.683908,-0.0806 -1.033246,-0.0677 -0.369212,-0.003 -0.739153,-0.006 -1.106828,-0.0439 -0.325541,-0.0394 -0.644126,-0.11978 -0.970754,-0.14533 -0.377976,0 -0.755954,0 -1.13393,0 -0.377976,0 -0.755952,-1e-5 -1.133927,-1e-5 -0.377976,0 -0.755952,-10e-6 -1.133925,1e-5 -0.37796,3e-5 -0.755921,7e-5 -1.133882,2.6e-4 -0.378003,2.7e-4 -0.756007,0.001 -1.134011,0.001 -0.379135,-5.3e-4 -0.758466,-5.3e-4 -1.137279,-0.0182 -0.383157,-0.0223 -0.764596,-0.0622 -1.141914,-0.13452 -0.372471,-0.0535 -0.747086,-0.0367 -1.122557,-0.0375 -0.377976,0 -0.755952,-1e-5 -1.133928,10e-6 -0.378057,3e-5 -0.756115,6e-5 -1.134172,2.6e-4 -0.378326,2.7e-4 -0.756652,8e-4 -1.134978,10e-4 -0.37428,-5.3e-4 -0.748779,-1.5e-4 -1.122727,-0.018 -0.343784,-0.0212 -0.685813,-0.0587 -1.022087,-0.13615 -0.389327,-0.0636 -0.784274,-0.029 -1.177244,-0.0388 -0.529684,-0.002 -1.059449,-0.005 -1.589079,0.004 0,0 1.966955,-1.42907 1.966955,-1.42907 z"
       inkscape:connector-curvature="0"
       inkscape:export-xdpi="99.147537"
       inkscape:export-ydpi="99.147537" />
  </g>
</svg>
